<svg width="760" height="229" viewBox="0 0 760 229" fill="none" xmlns="http://www.w3.org/2000/svg">
<line x1="0.331299" y1="189.5" x2="758.655" y2="189.5" stroke="#F7F7F7"/>
<line x1="0.331299" y1="149.5" x2="758.655" y2="149.5" stroke="#F7F7F7"/>
<line x1="0.331299" y1="109.5" x2="758.655" y2="109.5" stroke="#F7F7F7"/>
<line x1="0.331299" y1="69.5" x2="758.655" y2="69.5001" stroke="#F7F7F7"/>
<line x1="0.331299" y1="29.5" x2="758.655" y2="29.5001" stroke="#F7F7F7"/>
<mask id="mask0_55_6757" style="mask-type:alpha" maskUnits="userSpaceOnUse" x="0" y="0" width="760" height="189">
<rect width="760" height="189" rx="10" fill="white"/>
</mask>
<g mask="url(#mask0_55_6757)">
<path d="M-1.72942 142C-7.14545 144.295 -11.9141 145.919 -15.7259 147.026C-20.5954 148.44 -24.385 152.821 -24.385 157.892V180C-24.385 185.523 -19.9079 190 -14.385 190H764.225C769.747 190 774.225 185.523 774.225 180V62.7243C774.225 54.0245 763.519 49.0863 756.221 53.8225C743.528 62.0602 728.136 69.0441 716.642 66C693.986 60 668.499 61 651.507 66C634.515 71 624.131 78 605.252 79C586.372 80 592.036 75 562.772 72C533.509 69 521.237 98 507.077 106C492.918 114 457.046 112 443.831 106C430.615 100 419.287 98 408.903 98C398.519 98 398.519 105 383.416 106C368.312 107 353.208 97 332.441 98C311.673 99 283.353 118 261.642 119C239.93 120 253.146 114 221.995 112C190.843 110 166.3 136 146.476 142C126.652 148 97.3888 135 81.3411 131C65.2934 127 50.1897 142 37.9179 142C25.6461 142 12.4303 136 -1.72942 142Z" fill="#EEF2FF" fill-opacity="0.5" stroke="#00B3F0" stroke-width="2"/>
</g>
<path d="M3.64991 218.203H8.34291V219.321H3.64991V218.203ZM3.77991 223H2.47991V213.9H8.90191V215.031H3.77991V223ZM13.402 223.078C12.6654 223.078 12.0154 222.926 11.452 222.623C10.8974 222.32 10.464 221.904 10.152 221.375C9.84871 220.846 9.69704 220.24 9.69704 219.555C9.69704 218.87 9.84438 218.264 10.139 217.735C10.4424 217.206 10.854 216.795 11.374 216.5C11.9027 216.197 12.4964 216.045 13.155 216.045C13.8224 216.045 14.4117 216.192 14.923 216.487C15.4344 216.782 15.833 217.198 16.119 217.735C16.4137 218.264 16.561 218.883 16.561 219.594C16.561 219.646 16.5567 219.707 16.548 219.776C16.548 219.845 16.5437 219.91 16.535 219.971H10.672V219.074H15.885L15.378 219.386C15.3867 218.944 15.2957 218.55 15.105 218.203C14.9144 217.856 14.65 217.588 14.312 217.397C13.9827 217.198 13.597 217.098 13.155 217.098C12.7217 217.098 12.336 217.198 11.998 217.397C11.66 217.588 11.3957 217.861 11.205 218.216C11.0144 218.563 10.919 218.961 10.919 219.412V219.62C10.919 220.079 11.023 220.491 11.231 220.855C11.4477 221.21 11.7467 221.488 12.128 221.687C12.5094 221.886 12.947 221.986 13.441 221.986C13.8484 221.986 14.2167 221.917 14.546 221.778C14.884 221.639 15.1787 221.431 15.43 221.154L16.119 221.96C15.807 222.324 15.417 222.601 14.949 222.792C14.4897 222.983 13.974 223.078 13.402 223.078ZM21.947 223.078C21.3577 223.078 20.8247 222.948 20.348 222.688C19.88 222.419 19.5073 222.025 19.23 221.505C18.9613 220.985 18.827 220.335 18.827 219.555C18.827 218.775 18.9657 218.125 19.243 217.605C19.529 217.085 19.906 216.695 20.374 216.435C20.8507 216.175 21.375 216.045 21.947 216.045C22.623 216.045 23.221 216.192 23.741 216.487C24.261 216.782 24.6727 217.193 24.976 217.722C25.2793 218.242 25.431 218.853 25.431 219.555C25.431 220.257 25.2793 220.872 24.976 221.401C24.6727 221.93 24.261 222.341 23.741 222.636C23.221 222.931 22.623 223.078 21.947 223.078ZM18.294 223V213.354H19.542V217.943L19.412 219.542L19.49 221.141V223H18.294ZM21.843 221.986C22.285 221.986 22.6793 221.886 23.026 221.687C23.3813 221.488 23.6587 221.206 23.858 220.842C24.066 220.469 24.17 220.04 24.17 219.555C24.17 219.061 24.066 218.636 23.858 218.281C23.6587 217.917 23.3813 217.635 23.026 217.436C22.6793 217.237 22.285 217.137 21.843 217.137C21.4097 217.137 21.0153 217.237 20.66 217.436C20.3133 217.635 20.036 217.917 19.828 218.281C19.6287 218.636 19.529 219.061 19.529 219.555C19.529 220.04 19.6287 220.469 19.828 220.842C20.036 221.206 20.3133 221.488 20.66 221.687C21.0153 221.886 21.4097 221.986 21.843 221.986Z" fill="#505050"/>
<path d="M68.7076 223V213.9H69.7736L73.8556 220.777H73.2836L77.3136 213.9H78.3796L78.3926 223H77.1446L77.1316 215.863H77.4306L73.8426 221.895H73.2446L69.6306 215.863H69.9556V223H68.7076ZM85.2186 223V221.544L85.1536 221.271V218.788C85.1536 218.259 84.9976 217.852 84.6856 217.566C84.3823 217.271 83.9229 217.124 83.3076 217.124C82.9003 217.124 82.5016 217.193 82.1116 217.332C81.7216 217.462 81.3923 217.64 81.1236 217.865L80.6036 216.929C80.9589 216.643 81.3836 216.426 81.8776 216.279C82.3803 216.123 82.9046 216.045 83.4506 216.045C84.3953 216.045 85.1233 216.275 85.6346 216.734C86.1459 217.193 86.4016 217.895 86.4016 218.84V223H85.2186ZM82.9566 223.078C82.4453 223.078 81.9946 222.991 81.6046 222.818C81.2233 222.645 80.9286 222.406 80.7206 222.103C80.5126 221.791 80.4086 221.44 80.4086 221.05C80.4086 220.677 80.4953 220.339 80.6686 220.036C80.8506 219.733 81.1409 219.49 81.5396 219.308C81.9469 219.126 82.4929 219.035 83.1776 219.035H85.3616V219.932H83.2296C82.6056 219.932 82.1853 220.036 81.9686 220.244C81.7519 220.452 81.6436 220.703 81.6436 220.998C81.6436 221.336 81.7779 221.609 82.0466 221.817C82.3153 222.016 82.6879 222.116 83.1646 222.116C83.6326 222.116 84.0399 222.012 84.3866 221.804C84.7419 221.596 84.9976 221.293 85.1536 220.894L85.4006 221.752C85.2359 222.159 84.9456 222.484 84.5296 222.727C84.1136 222.961 83.5893 223.078 82.9566 223.078ZM88.7111 223V216.11H89.9071V217.982L89.7901 217.514C89.9808 217.037 90.3015 216.673 90.7521 216.422C91.2028 216.171 91.7575 216.045 92.4161 216.045V217.254C92.3641 217.245 92.3121 217.241 92.2601 217.241C92.2168 217.241 92.1735 217.241 92.1301 217.241C91.4628 217.241 90.9341 217.44 90.5441 217.839C90.1541 218.238 89.9591 218.814 89.9591 219.568V223H88.7111Z" fill="#505050"/>
<path d="M134.288 223L138.409 213.9H139.696L143.83 223H142.465L138.786 214.628H139.306L135.627 223H134.288ZM136.043 220.725L136.394 219.685H141.516L141.893 220.725H136.043ZM148.658 223.078C148.086 223.078 147.562 222.948 147.085 222.688C146.617 222.419 146.24 222.025 145.954 221.505C145.677 220.985 145.538 220.335 145.538 219.555C145.538 218.775 145.672 218.125 145.941 217.605C146.218 217.085 146.591 216.695 147.059 216.435C147.536 216.175 148.069 216.045 148.658 216.045C149.334 216.045 149.932 216.192 150.452 216.487C150.972 216.782 151.384 217.193 151.687 217.722C151.99 218.242 152.142 218.853 152.142 219.555C152.142 220.257 151.99 220.872 151.687 221.401C151.384 221.93 150.972 222.341 150.452 222.636C149.932 222.931 149.334 223.078 148.658 223.078ZM145.005 225.522V216.11H146.201V217.969L146.123 219.568L146.253 221.167V225.522H145.005ZM148.554 221.986C148.996 221.986 149.39 221.886 149.737 221.687C150.092 221.488 150.37 221.206 150.569 220.842C150.777 220.469 150.881 220.04 150.881 219.555C150.881 219.061 150.777 218.636 150.569 218.281C150.37 217.917 150.092 217.635 149.737 217.436C149.39 217.237 148.996 217.137 148.554 217.137C148.121 217.137 147.726 217.237 147.371 217.436C147.024 217.635 146.747 217.917 146.539 218.281C146.34 218.636 146.24 219.061 146.24 219.555C146.24 220.04 146.34 220.469 146.539 220.842C146.747 221.206 147.024 221.488 147.371 221.687C147.726 221.886 148.121 221.986 148.554 221.986ZM153.866 223V216.11H155.062V217.982L154.945 217.514C155.136 217.037 155.457 216.673 155.907 216.422C156.358 216.171 156.913 216.045 157.571 216.045V217.254C157.519 217.245 157.467 217.241 157.415 217.241C157.372 217.241 157.329 217.241 157.285 217.241C156.618 217.241 156.089 217.44 155.699 217.839C155.309 218.238 155.114 218.814 155.114 219.568V223H153.866Z" fill="#505050"/>
<path d="M200.894 223V213.9H201.96L206.042 220.777H205.47L209.5 213.9H210.566L210.579 223H209.331L209.318 215.863H209.617L206.029 221.895H205.431L201.817 215.863H202.142V223H200.894ZM217.405 223V221.544L217.34 221.271V218.788C217.34 218.259 217.184 217.852 216.872 217.566C216.569 217.271 216.109 217.124 215.494 217.124C215.087 217.124 214.688 217.193 214.298 217.332C213.908 217.462 213.579 217.64 213.31 217.865L212.79 216.929C213.145 216.643 213.57 216.426 214.064 216.279C214.567 216.123 215.091 216.045 215.637 216.045C216.582 216.045 217.31 216.275 217.821 216.734C218.332 217.193 218.588 217.895 218.588 218.84V223H217.405ZM215.143 223.078C214.632 223.078 214.181 222.991 213.791 222.818C213.41 222.645 213.115 222.406 212.907 222.103C212.699 221.791 212.595 221.44 212.595 221.05C212.595 220.677 212.682 220.339 212.855 220.036C213.037 219.733 213.327 219.49 213.726 219.308C214.133 219.126 214.679 219.035 215.364 219.035H217.548V219.932H215.416C214.792 219.932 214.372 220.036 214.155 220.244C213.938 220.452 213.83 220.703 213.83 220.998C213.83 221.336 213.964 221.609 214.233 221.817C214.502 222.016 214.874 222.116 215.351 222.116C215.819 222.116 216.226 222.012 216.573 221.804C216.928 221.596 217.184 221.293 217.34 220.894L217.587 221.752C217.422 222.159 217.132 222.484 216.716 222.727C216.3 222.961 215.776 223.078 215.143 223.078ZM221.07 225.6C220.74 225.6 220.42 225.544 220.108 225.431C219.796 225.327 219.527 225.171 219.302 224.963L219.835 224.027C220.008 224.192 220.199 224.317 220.407 224.404C220.615 224.491 220.836 224.534 221.07 224.534C221.373 224.534 221.624 224.456 221.824 224.3C222.023 224.144 222.209 223.867 222.383 223.468L222.812 222.519L222.942 222.363L225.646 216.11H226.868L223.527 223.689C223.327 224.174 223.102 224.556 222.851 224.833C222.608 225.11 222.339 225.305 222.045 225.418C221.75 225.539 221.425 225.6 221.07 225.6ZM222.708 223.221L219.562 216.11H220.862L223.54 222.246L222.708 223.221Z" fill="#505050"/>
<path d="M270.154 223.104C269.616 223.104 269.114 222.991 268.646 222.766C268.178 222.541 267.796 222.216 267.502 221.791L268.256 220.907C268.507 221.254 268.789 221.522 269.101 221.713C269.421 221.895 269.772 221.986 270.154 221.986C271.194 221.986 271.714 221.371 271.714 220.14V215.031H268.425V213.9H273.001V220.075C273.001 221.089 272.758 221.847 272.273 222.35C271.796 222.853 271.09 223.104 270.154 223.104ZM278.366 223.078C277.777 223.078 277.257 222.97 276.806 222.753C276.364 222.536 276.017 222.207 275.766 221.765C275.523 221.314 275.402 220.751 275.402 220.075V216.11H276.65V219.932C276.65 220.608 276.81 221.115 277.131 221.453C277.46 221.791 277.92 221.96 278.509 221.96C278.942 221.96 279.319 221.873 279.64 221.7C279.961 221.518 280.208 221.258 280.381 220.92C280.554 220.573 280.641 220.157 280.641 219.672V216.11H281.889V223H280.706V221.141L280.901 221.635C280.676 222.094 280.338 222.45 279.887 222.701C279.436 222.952 278.929 223.078 278.366 223.078ZM287.944 216.045C288.507 216.045 289.001 216.153 289.426 216.37C289.859 216.587 290.197 216.916 290.44 217.358C290.682 217.8 290.804 218.359 290.804 219.035V223H289.556V219.178C289.556 218.511 289.391 218.008 289.062 217.67C288.741 217.332 288.286 217.163 287.697 217.163C287.255 217.163 286.869 217.25 286.54 217.423C286.21 217.596 285.955 217.852 285.773 218.19C285.599 218.528 285.513 218.948 285.513 219.451V223H284.265V216.11H285.461V217.969L285.266 217.475C285.491 217.024 285.838 216.673 286.306 216.422C286.774 216.171 287.32 216.045 287.944 216.045Z" fill="#505050"/>
<path d="M332.236 223.104C331.698 223.104 331.196 222.991 330.728 222.766C330.26 222.541 329.878 222.216 329.584 221.791L330.338 220.907C330.589 221.254 330.871 221.522 331.183 221.713C331.503 221.895 331.854 221.986 332.236 221.986C333.276 221.986 333.796 221.371 333.796 220.14V215.031H330.507V213.9H335.083V220.075C335.083 221.089 334.84 221.847 334.355 222.35C333.878 222.853 333.172 223.104 332.236 223.104ZM340.448 223.078C339.859 223.078 339.339 222.97 338.888 222.753C338.446 222.536 338.099 222.207 337.848 221.765C337.605 221.314 337.484 220.751 337.484 220.075V216.11H338.732V219.932C338.732 220.608 338.892 221.115 339.213 221.453C339.542 221.791 340.002 221.96 340.591 221.96C341.024 221.96 341.401 221.873 341.722 221.7C342.043 221.518 342.29 221.258 342.463 220.92C342.636 220.573 342.723 220.157 342.723 219.672V216.11H343.971V223H342.788V221.141L342.983 221.635C342.758 222.094 342.42 222.45 341.969 222.701C341.518 222.952 341.011 223.078 340.448 223.078ZM346.347 223V213.354H347.595V223H346.347Z" fill="#505050"/>
<path d="M388.59 223L392.711 213.9H393.998L398.132 223H396.767L393.088 214.628H393.608L389.929 223H388.59ZM390.345 220.725L390.696 219.685H395.818L396.195 220.725H390.345ZM402.079 223.078C401.49 223.078 400.97 222.97 400.519 222.753C400.077 222.536 399.731 222.207 399.479 221.765C399.237 221.314 399.115 220.751 399.115 220.075V216.11H400.363V219.932C400.363 220.608 400.524 221.115 400.844 221.453C401.174 221.791 401.633 221.96 402.222 221.96C402.656 221.96 403.033 221.873 403.353 221.7C403.674 221.518 403.921 221.258 404.094 220.92C404.268 220.573 404.354 220.157 404.354 219.672V216.11H405.602V223H404.419V221.141L404.614 221.635C404.389 222.094 404.051 222.45 403.6 222.701C403.15 222.952 402.643 223.078 402.079 223.078ZM410.994 225.6C410.362 225.6 409.746 225.509 409.148 225.327C408.559 225.154 408.078 224.902 407.705 224.573L408.303 223.611C408.624 223.888 409.018 224.105 409.486 224.261C409.954 224.426 410.444 224.508 410.955 224.508C411.77 224.508 412.368 224.317 412.749 223.936C413.131 223.555 413.321 222.974 413.321 222.194V220.738L413.451 219.373L413.386 217.995V216.11H414.569V222.064C414.569 223.277 414.266 224.17 413.659 224.742C413.053 225.314 412.164 225.6 410.994 225.6ZM410.838 222.714C410.171 222.714 409.573 222.575 409.044 222.298C408.524 222.012 408.108 221.618 407.796 221.115C407.493 220.612 407.341 220.032 407.341 219.373C407.341 218.706 407.493 218.125 407.796 217.631C408.108 217.128 408.524 216.738 409.044 216.461C409.573 216.184 410.171 216.045 410.838 216.045C411.428 216.045 411.965 216.166 412.45 216.409C412.936 216.643 413.321 217.007 413.607 217.501C413.902 217.995 414.049 218.619 414.049 219.373C414.049 220.118 413.902 220.738 413.607 221.232C413.321 221.726 412.936 222.099 412.45 222.35C411.965 222.593 411.428 222.714 410.838 222.714ZM410.981 221.622C411.441 221.622 411.848 221.527 412.203 221.336C412.559 221.145 412.836 220.881 413.035 220.543C413.243 220.205 413.347 219.815 413.347 219.373C413.347 218.931 413.243 218.541 413.035 218.203C412.836 217.865 412.559 217.605 412.203 217.423C411.848 217.232 411.441 217.137 410.981 217.137C410.522 217.137 410.11 217.232 409.746 217.423C409.391 217.605 409.109 217.865 408.901 218.203C408.702 218.541 408.602 218.931 408.602 219.373C408.602 219.815 408.702 220.205 408.901 220.543C409.109 220.881 409.391 221.145 409.746 221.336C410.11 221.527 410.522 221.622 410.981 221.622Z" fill="#505050"/>
<path d="M463.334 223.104C462.641 223.104 461.978 223 461.345 222.792C460.713 222.575 460.214 222.298 459.85 221.96L460.331 220.946C460.678 221.249 461.12 221.501 461.657 221.7C462.195 221.899 462.754 221.999 463.334 221.999C463.863 221.999 464.292 221.938 464.621 221.817C464.951 221.696 465.193 221.531 465.349 221.323C465.505 221.106 465.583 220.864 465.583 220.595C465.583 220.283 465.479 220.032 465.271 219.841C465.072 219.65 464.808 219.499 464.478 219.386C464.158 219.265 463.802 219.161 463.412 219.074C463.022 218.987 462.628 218.888 462.229 218.775C461.839 218.654 461.48 218.502 461.15 218.32C460.83 218.138 460.57 217.895 460.37 217.592C460.171 217.28 460.071 216.881 460.071 216.396C460.071 215.928 460.193 215.499 460.435 215.109C460.687 214.71 461.068 214.394 461.579 214.16C462.099 213.917 462.758 213.796 463.555 213.796C464.084 213.796 464.608 213.865 465.128 214.004C465.648 214.143 466.099 214.342 466.48 214.602L466.051 215.642C465.661 215.382 465.25 215.196 464.816 215.083C464.383 214.962 463.963 214.901 463.555 214.901C463.044 214.901 462.624 214.966 462.294 215.096C461.965 215.226 461.722 215.399 461.566 215.616C461.419 215.833 461.345 216.075 461.345 216.344C461.345 216.665 461.445 216.92 461.644 217.111C461.852 217.302 462.117 217.453 462.437 217.566C462.767 217.679 463.126 217.783 463.516 217.878C463.906 217.965 464.296 218.064 464.686 218.177C465.085 218.29 465.445 218.437 465.765 218.619C466.095 218.801 466.359 219.044 466.558 219.347C466.758 219.65 466.857 220.04 466.857 220.517C466.857 220.976 466.732 221.405 466.48 221.804C466.229 222.194 465.839 222.51 465.31 222.753C464.79 222.987 464.132 223.104 463.334 223.104ZM471.643 223.078C470.906 223.078 470.256 222.926 469.693 222.623C469.138 222.32 468.705 221.904 468.393 221.375C468.089 220.846 467.938 220.24 467.938 219.555C467.938 218.87 468.085 218.264 468.38 217.735C468.683 217.206 469.095 216.795 469.615 216.5C470.143 216.197 470.737 216.045 471.396 216.045C472.063 216.045 472.652 216.192 473.164 216.487C473.675 216.782 474.074 217.198 474.36 217.735C474.654 218.264 474.802 218.883 474.802 219.594C474.802 219.646 474.797 219.707 474.789 219.776C474.789 219.845 474.784 219.91 474.776 219.971H468.913V219.074H474.126L473.619 219.386C473.627 218.944 473.536 218.55 473.346 218.203C473.155 217.856 472.891 217.588 472.553 217.397C472.223 217.198 471.838 217.098 471.396 217.098C470.962 217.098 470.577 217.198 470.239 217.397C469.901 217.588 469.636 217.861 469.446 218.216C469.255 218.563 469.16 218.961 469.16 219.412V219.62C469.16 220.079 469.264 220.491 469.472 220.855C469.688 221.21 469.987 221.488 470.369 221.687C470.75 221.886 471.188 221.986 471.682 221.986C472.089 221.986 472.457 221.917 472.787 221.778C473.125 221.639 473.419 221.431 473.671 221.154L474.36 221.96C474.048 222.324 473.658 222.601 473.19 222.792C472.73 222.983 472.215 223.078 471.643 223.078ZM480.188 223.078C479.616 223.078 479.091 222.948 478.615 222.688C478.147 222.419 477.77 222.025 477.484 221.505C477.206 220.985 477.068 220.335 477.068 219.555C477.068 218.775 477.202 218.125 477.471 217.605C477.748 217.085 478.121 216.695 478.589 216.435C479.065 216.175 479.598 216.045 480.188 216.045C480.864 216.045 481.462 216.192 481.982 216.487C482.502 216.782 482.913 217.193 483.217 217.722C483.52 218.242 483.672 218.853 483.672 219.555C483.672 220.257 483.52 220.872 483.217 221.401C482.913 221.93 482.502 222.341 481.982 222.636C481.462 222.931 480.864 223.078 480.188 223.078ZM476.535 225.522V216.11H477.731V217.969L477.653 219.568L477.783 221.167V225.522H476.535ZM480.084 221.986C480.526 221.986 480.92 221.886 481.267 221.687C481.622 221.488 481.899 221.206 482.099 220.842C482.307 220.469 482.411 220.04 482.411 219.555C482.411 219.061 482.307 218.636 482.099 218.281C481.899 217.917 481.622 217.635 481.267 217.436C480.92 217.237 480.526 217.137 480.084 217.137C479.65 217.137 479.256 217.237 478.901 217.436C478.554 217.635 478.277 217.917 478.069 218.281C477.869 218.636 477.77 219.061 477.77 219.555C477.77 220.04 477.869 220.469 478.069 220.842C478.277 221.206 478.554 221.488 478.901 221.687C479.256 221.886 479.65 221.986 480.084 221.986Z" fill="#505050"/>
<path d="M532.917 223.104C532.224 223.104 531.578 222.987 530.98 222.753C530.391 222.519 529.88 222.194 529.446 221.778C529.013 221.353 528.675 220.859 528.432 220.296C528.19 219.733 528.068 219.117 528.068 218.45C528.068 217.783 528.19 217.167 528.432 216.604C528.675 216.041 529.013 215.551 529.446 215.135C529.88 214.71 530.391 214.381 530.98 214.147C531.57 213.913 532.215 213.796 532.917 213.796C533.611 213.796 534.248 213.913 534.828 214.147C535.418 214.372 535.929 214.697 536.362 215.122C536.804 215.538 537.142 216.028 537.376 216.591C537.619 217.154 537.74 217.774 537.74 218.45C537.74 219.126 537.619 219.746 537.376 220.309C537.142 220.872 536.804 221.366 536.362 221.791C535.929 222.207 535.418 222.532 534.828 222.766C534.248 222.991 533.611 223.104 532.917 223.104ZM532.917 221.947C533.42 221.947 533.884 221.86 534.308 221.687C534.742 221.514 535.114 221.271 535.426 220.959C535.747 220.638 535.994 220.266 536.167 219.841C536.349 219.416 536.44 218.953 536.44 218.45C536.44 217.947 536.349 217.484 536.167 217.059C535.994 216.634 535.747 216.266 535.426 215.954C535.114 215.633 534.742 215.386 534.308 215.213C533.884 215.04 533.42 214.953 532.917 214.953C532.406 214.953 531.934 215.04 531.5 215.213C531.076 215.386 530.703 215.633 530.382 215.954C530.062 216.266 529.81 216.634 529.628 217.059C529.455 217.484 529.368 217.947 529.368 218.45C529.368 218.953 529.455 219.416 529.628 219.841C529.81 220.266 530.062 220.638 530.382 220.959C530.703 221.271 531.076 221.514 531.5 221.687C531.934 221.86 532.406 221.947 532.917 221.947ZM542.548 223.078C541.846 223.078 541.218 222.926 540.663 222.623C540.117 222.32 539.688 221.904 539.376 221.375C539.064 220.846 538.908 220.24 538.908 219.555C538.908 218.87 539.064 218.264 539.376 217.735C539.688 217.206 540.117 216.795 540.663 216.5C541.218 216.197 541.846 216.045 542.548 216.045C543.172 216.045 543.727 216.171 544.212 216.422C544.706 216.665 545.088 217.029 545.356 217.514L544.407 218.125C544.182 217.787 543.905 217.54 543.575 217.384C543.255 217.219 542.908 217.137 542.535 217.137C542.085 217.137 541.682 217.237 541.326 217.436C540.971 217.635 540.689 217.917 540.481 218.281C540.273 218.636 540.169 219.061 540.169 219.555C540.169 220.049 540.273 220.478 540.481 220.842C540.689 221.206 540.971 221.488 541.326 221.687C541.682 221.886 542.085 221.986 542.535 221.986C542.908 221.986 543.255 221.908 543.575 221.752C543.905 221.587 544.182 221.336 544.407 220.998L545.356 221.596C545.088 222.073 544.706 222.441 544.212 222.701C543.727 222.952 543.172 223.078 542.548 223.078ZM549.427 223.078C548.734 223.078 548.196 222.892 547.815 222.519C547.434 222.146 547.243 221.613 547.243 220.92V214.602H548.491V220.868C548.491 221.241 548.582 221.527 548.764 221.726C548.955 221.925 549.223 222.025 549.57 222.025C549.96 222.025 550.285 221.917 550.545 221.7L550.935 222.597C550.744 222.762 550.515 222.883 550.246 222.961C549.986 223.039 549.713 223.078 549.427 223.078ZM546.073 217.137V216.11H550.467V217.137H546.073Z" fill="#505050"/>
<path d="M595.856 223V213.9H596.922L602.941 221.375H602.382V213.9H603.682V223H602.616L596.597 215.525H597.156V223H595.856ZM609.175 223.078C608.482 223.078 607.866 222.926 607.329 222.623C606.792 222.32 606.367 221.904 606.055 221.375C605.743 220.838 605.587 220.231 605.587 219.555C605.587 218.87 605.743 218.264 606.055 217.735C606.367 217.206 606.792 216.795 607.329 216.5C607.866 216.197 608.482 216.045 609.175 216.045C609.86 216.045 610.471 216.197 611.008 216.5C611.554 216.795 611.979 217.206 612.282 217.735C612.594 218.255 612.75 218.862 612.75 219.555C612.75 220.24 612.594 220.846 612.282 221.375C611.979 221.904 611.554 222.32 611.008 222.623C610.471 222.926 609.86 223.078 609.175 223.078ZM609.175 221.986C609.617 221.986 610.011 221.886 610.358 221.687C610.713 221.488 610.991 221.206 611.19 220.842C611.389 220.469 611.489 220.04 611.489 219.555C611.489 219.061 611.389 218.636 611.19 218.281C610.991 217.917 610.713 217.635 610.358 217.436C610.011 217.237 609.617 217.137 609.175 217.137C608.733 217.137 608.339 217.237 607.992 217.436C607.645 217.635 607.368 217.917 607.16 218.281C606.952 218.636 606.848 219.061 606.848 219.555C606.848 220.04 606.952 220.469 607.16 220.842C607.368 221.206 607.645 221.488 607.992 221.687C608.339 221.886 608.733 221.986 609.175 221.986ZM616.092 223L613.076 216.11H614.376L617.054 222.35H616.43L619.16 216.11H620.382L617.366 223H616.092Z" fill="#505050"/>
<path d="M665.307 223V213.9H669.142C670.113 213.9 670.967 214.091 671.703 214.472C672.449 214.853 673.025 215.386 673.432 216.071C673.848 216.756 674.056 217.549 674.056 218.45C674.056 219.351 673.848 220.144 673.432 220.829C673.025 221.514 672.449 222.047 671.703 222.428C670.967 222.809 670.113 223 669.142 223H665.307ZM666.607 221.869H669.064C669.818 221.869 670.468 221.726 671.014 221.44C671.569 221.154 671.998 220.755 672.301 220.244C672.605 219.724 672.756 219.126 672.756 218.45C672.756 217.765 672.605 217.167 672.301 216.656C671.998 216.145 671.569 215.746 671.014 215.46C670.468 215.174 669.818 215.031 669.064 215.031H666.607V221.869ZM678.934 223.078C678.197 223.078 677.547 222.926 676.984 222.623C676.429 222.32 675.996 221.904 675.684 221.375C675.38 220.846 675.229 220.24 675.229 219.555C675.229 218.87 675.376 218.264 675.671 217.735C675.974 217.206 676.386 216.795 676.906 216.5C677.434 216.197 678.028 216.045 678.687 216.045C679.354 216.045 679.943 216.192 680.455 216.487C680.966 216.782 681.365 217.198 681.651 217.735C681.945 218.264 682.093 218.883 682.093 219.594C682.093 219.646 682.088 219.707 682.08 219.776C682.08 219.845 682.075 219.91 682.067 219.971H676.204V219.074H681.417L680.91 219.386C680.918 218.944 680.827 218.55 680.637 218.203C680.446 217.856 680.182 217.588 679.844 217.397C679.514 217.198 679.129 217.098 678.687 217.098C678.253 217.098 677.868 217.198 677.53 217.397C677.192 217.588 676.927 217.861 676.737 218.216C676.546 218.563 676.451 218.961 676.451 219.412V219.62C676.451 220.079 676.555 220.491 676.763 220.855C676.979 221.21 677.278 221.488 677.66 221.687C678.041 221.886 678.479 221.986 678.973 221.986C679.38 221.986 679.748 221.917 680.078 221.778C680.416 221.639 680.71 221.431 680.962 221.154L681.651 221.96C681.339 222.324 680.949 222.601 680.481 222.792C680.021 222.983 679.506 223.078 678.934 223.078ZM686.829 223.078C686.127 223.078 685.498 222.926 684.944 222.623C684.398 222.32 683.969 221.904 683.657 221.375C683.345 220.846 683.189 220.24 683.189 219.555C683.189 218.87 683.345 218.264 683.657 217.735C683.969 217.206 684.398 216.795 684.944 216.5C685.498 216.197 686.127 216.045 686.829 216.045C687.453 216.045 688.007 216.171 688.493 216.422C688.987 216.665 689.368 217.029 689.637 217.514L688.688 218.125C688.462 217.787 688.185 217.54 687.856 217.384C687.535 217.219 687.188 217.137 686.816 217.137C686.365 217.137 685.962 217.237 685.607 217.436C685.251 217.635 684.97 217.917 684.762 218.281C684.554 218.636 684.45 219.061 684.45 219.555C684.45 220.049 684.554 220.478 684.762 220.842C684.97 221.206 685.251 221.488 685.607 221.687C685.962 221.886 686.365 221.986 686.816 221.986C687.188 221.986 687.535 221.908 687.856 221.752C688.185 221.587 688.462 221.336 688.688 220.998L689.637 221.596C689.368 222.073 688.987 222.441 688.493 222.701C688.007 222.952 687.453 223.078 686.829 223.078Z" fill="#505050"/>
<path d="M733.482 223.104C732.945 223.104 732.442 222.991 731.974 222.766C731.506 222.541 731.125 222.216 730.83 221.791L731.584 220.907C731.836 221.254 732.117 221.522 732.429 221.713C732.75 221.895 733.101 221.986 733.482 221.986C734.522 221.986 735.042 221.371 735.042 220.14V215.031H731.753V213.9H736.329V220.075C736.329 221.089 736.087 221.847 735.601 222.35C735.125 222.853 734.418 223.104 733.482 223.104ZM743.072 223V221.544L743.007 221.271V218.788C743.007 218.259 742.851 217.852 742.539 217.566C742.236 217.271 741.777 217.124 741.161 217.124C740.754 217.124 740.355 217.193 739.965 217.332C739.575 217.462 739.246 217.64 738.977 217.865L738.457 216.929C738.813 216.643 739.237 216.426 739.731 216.279C740.234 216.123 740.758 216.045 741.304 216.045C742.249 216.045 742.977 216.275 743.488 216.734C744 217.193 744.255 217.895 744.255 218.84V223H743.072ZM740.81 223.078C740.299 223.078 739.848 222.991 739.458 222.818C739.077 222.645 738.782 222.406 738.574 222.103C738.366 221.791 738.262 221.44 738.262 221.05C738.262 220.677 738.349 220.339 738.522 220.036C738.704 219.733 738.995 219.49 739.393 219.308C739.801 219.126 740.347 219.035 741.031 219.035H743.215V219.932H741.083C740.459 219.932 740.039 220.036 739.822 220.244C739.606 220.452 739.497 220.703 739.497 220.998C739.497 221.336 739.632 221.609 739.9 221.817C740.169 222.016 740.542 222.116 741.018 222.116C741.486 222.116 741.894 222.012 742.24 221.804C742.596 221.596 742.851 221.293 743.007 220.894L743.254 221.752C743.09 222.159 742.799 222.484 742.383 222.727C741.967 222.961 741.443 223.078 740.81 223.078ZM750.244 216.045C750.807 216.045 751.301 216.153 751.726 216.37C752.159 216.587 752.497 216.916 752.74 217.358C752.983 217.8 753.104 218.359 753.104 219.035V223H751.856V219.178C751.856 218.511 751.691 218.008 751.362 217.67C751.041 217.332 750.586 217.163 749.997 217.163C749.555 217.163 749.169 217.25 748.84 217.423C748.511 217.596 748.255 217.852 748.073 218.19C747.9 218.528 747.813 218.948 747.813 219.451V223H746.565V216.11H747.761V217.969L747.566 217.475C747.791 217.024 748.138 216.673 748.606 216.422C749.074 216.171 749.62 216.045 750.244 216.045Z" fill="#505050"/>
<line x1="278.613" y1="117" x2="278.613" y2="189" stroke="#C9C9C9"/>
<path d="M278.113 118C281.452 118 284.182 115.327 284.182 112C284.182 108.673 281.452 106 278.113 106C274.774 106 272.044 108.673 272.044 112C272.044 115.327 274.774 118 278.113 118Z" fill="#00B3F0" stroke="white" stroke-width="2"/>
<g filter="url(#filter0_bd_55_6757)">
<mask id="path-22-inside-1_55_6757" fill="white">
<path fill-rule="evenodd" clip-rule="evenodd" d="M237.45 35C233.032 35 229.45 38.5817 229.45 43V84C229.45 88.4183 233.032 92 237.45 92H269.955C271.495 92 272.969 92.629 274.034 93.7413V93.7413C276.258 96.063 279.968 96.063 282.192 93.7413V93.7413C283.257 92.629 284.731 92 286.271 92H318.775C323.194 92 326.775 88.4183 326.775 84V43C326.775 38.5817 323.194 35 318.775 35H237.45Z"/>
</mask>
<path fill-rule="evenodd" clip-rule="evenodd" d="M237.45 35C233.032 35 229.45 38.5817 229.45 43V84C229.45 88.4183 233.032 92 237.45 92H269.955C271.495 92 272.969 92.629 274.034 93.7413V93.7413C276.258 96.063 279.968 96.063 282.192 93.7413V93.7413C283.257 92.629 284.731 92 286.271 92H318.775C323.194 92 326.775 88.4183 326.775 84V43C326.775 38.5817 323.194 35 318.775 35H237.45Z" fill="white"/>
<path d="M230.45 43C230.45 39.134 233.584 36 237.45 36V34C232.48 34 228.45 38.0294 228.45 43H230.45ZM230.45 84V43H228.45V84H230.45ZM237.45 91C233.584 91 230.45 87.866 230.45 84H228.45C228.45 88.9706 232.48 93 237.45 93V91ZM269.955 91H237.45V93H269.955V91ZM318.775 91H286.271V93H318.775V91ZM325.775 84C325.775 87.866 322.641 91 318.775 91V93C323.746 93 327.775 88.9706 327.775 84H325.775ZM325.775 43V84H327.775V43H325.775ZM318.775 36C322.641 36 325.775 39.134 325.775 43H327.775C327.775 38.0294 323.746 34 318.775 34V36ZM237.45 36H318.775V34H237.45V36ZM282.914 94.433C283.791 93.5176 285.003 93 286.271 93V91C284.458 91 282.724 91.7404 281.47 93.0496L282.914 94.433ZM273.312 94.433C275.929 97.1658 280.297 97.1658 282.914 94.433L281.47 93.0496C279.64 94.9603 276.586 94.9603 274.756 93.0496L273.312 94.433ZM269.955 93C271.223 93 272.435 93.5176 273.312 94.433L274.756 93.0496C273.502 91.7404 271.768 91 269.955 91V93Z" fill="#C9C9C9" mask="url(#path-22-inside-1_55_6757)"/>
</g>
<path d="M257.206 78.56V66.34H258.272V78.56H257.206ZM257.609 77.13C256.898 77.13 256.218 77.0303 255.568 76.831C254.918 76.623 254.402 76.3587 254.021 76.038L254.606 74.725C254.97 75.011 255.42 75.2493 255.958 75.44C256.495 75.6307 257.045 75.726 257.609 75.726C258.085 75.726 258.471 75.674 258.766 75.57C259.06 75.466 259.277 75.3273 259.416 75.154C259.554 74.972 259.624 74.7683 259.624 74.543C259.624 74.2657 259.524 74.0447 259.325 73.88C259.125 73.7067 258.865 73.5723 258.545 73.477C258.233 73.373 257.882 73.2777 257.492 73.191C257.11 73.1043 256.725 73.0047 256.335 72.892C255.953 72.7707 255.602 72.619 255.282 72.437C254.97 72.2463 254.714 71.995 254.515 71.683C254.315 71.371 254.216 70.9723 254.216 70.487C254.216 69.993 254.346 69.5423 254.606 69.135C254.874 68.719 255.277 68.3897 255.815 68.147C256.361 67.8957 257.05 67.77 257.882 67.77C258.428 67.77 258.969 67.8393 259.507 67.978C260.044 68.1167 260.512 68.316 260.911 68.576L260.378 69.889C259.97 69.6463 259.55 69.4687 259.117 69.356C258.683 69.2347 258.267 69.174 257.869 69.174C257.401 69.174 257.019 69.2303 256.725 69.343C256.439 69.4557 256.226 69.603 256.088 69.785C255.958 69.967 255.893 70.175 255.893 70.409C255.893 70.6863 255.988 70.9117 256.179 71.085C256.378 71.2497 256.634 71.3797 256.946 71.475C257.266 71.5703 257.622 71.6657 258.012 71.761C258.402 71.8477 258.787 71.9473 259.169 72.06C259.559 72.1727 259.91 72.32 260.222 72.502C260.542 72.684 260.798 72.931 260.989 73.243C261.188 73.555 261.288 73.9493 261.288 74.426C261.288 74.9113 261.153 75.362 260.885 75.778C260.625 76.1853 260.222 76.5147 259.676 76.766C259.13 77.0087 258.441 77.13 257.609 77.13ZM262.311 74.933V73.763L266.796 67.9H268.603L264.183 73.763L263.338 73.503H270.553V74.933H262.311ZM267.303 77V74.933L267.355 73.503V71.67H268.941V77H267.303ZM274.28 77.13C273.638 77.13 273.01 77.039 272.395 76.857C271.788 76.6663 271.277 76.4063 270.861 76.077L271.576 74.764C271.905 75.0327 272.304 75.2493 272.772 75.414C273.248 75.5787 273.742 75.661 274.254 75.661C274.852 75.661 275.32 75.5353 275.658 75.284C276.004 75.0327 276.178 74.6947 276.178 74.27C276.178 73.984 276.104 73.7327 275.957 73.516C275.818 73.2993 275.567 73.1347 275.203 73.022C274.847 72.9093 274.358 72.853 273.734 72.853H271.537L272.005 67.9H277.348V69.317H272.629L273.513 68.511L273.162 72.216L272.278 71.423H274.111C275.012 71.423 275.736 71.5443 276.282 71.787C276.836 72.021 277.239 72.3503 277.491 72.775C277.751 73.191 277.881 73.6677 277.881 74.205C277.881 74.7337 277.751 75.219 277.491 75.661C277.231 76.103 276.832 76.4583 276.295 76.727C275.766 76.9957 275.094 77.13 274.28 77.13ZM278.921 78.963L279.675 76.09L279.896 77.052C279.592 77.052 279.337 76.961 279.129 76.779C278.929 76.5883 278.83 76.3327 278.83 76.012C278.83 75.6827 278.929 75.4227 279.129 75.232C279.337 75.0327 279.588 74.933 279.883 74.933C280.186 74.933 280.437 75.0327 280.637 75.232C280.836 75.4313 280.936 75.6913 280.936 76.012C280.936 76.0987 280.927 76.194 280.91 76.298C280.892 76.3933 280.862 76.506 280.819 76.636C280.784 76.766 280.723 76.9307 280.637 77.13L279.974 78.963H278.921ZM285.045 77.13C284.404 77.13 283.776 77.039 283.16 76.857C282.554 76.6663 282.042 76.4063 281.626 76.077L282.341 74.764C282.671 75.0327 283.069 75.2493 283.537 75.414C284.014 75.5787 284.508 75.661 285.019 75.661C285.617 75.661 286.085 75.5353 286.423 75.284C286.77 75.0327 286.943 74.6947 286.943 74.27C286.943 73.984 286.87 73.7327 286.722 73.516C286.584 73.2993 286.332 73.1347 285.968 73.022C285.613 72.9093 285.123 72.853 284.499 72.853H282.302L282.77 67.9H288.113V69.317H283.394L284.278 68.511L283.927 72.216L283.043 71.423H284.876C285.778 71.423 286.501 71.5443 287.047 71.787C287.602 72.021 288.005 72.3503 288.256 72.775C288.516 73.191 288.646 73.6677 288.646 74.205C288.646 74.7337 288.516 75.219 288.256 75.661C287.996 76.103 287.598 76.4583 287.06 76.727C286.532 76.9957 285.86 77.13 285.045 77.13ZM292.689 67.77C293.521 67.77 294.228 67.9477 294.808 68.303C295.398 68.6497 295.848 69.1567 296.16 69.824C296.472 70.4913 296.628 71.3147 296.628 72.294C296.628 73.334 296.438 74.2137 296.056 74.933C295.684 75.6523 295.164 76.1983 294.496 76.571C293.829 76.9437 293.053 77.13 292.169 77.13C291.71 77.13 291.272 77.0823 290.856 76.987C290.44 76.8917 290.081 76.7443 289.777 76.545L290.401 75.271C290.653 75.4357 290.926 75.5527 291.22 75.622C291.515 75.6827 291.818 75.713 292.13 75.713C292.988 75.713 293.669 75.4487 294.171 74.92C294.674 74.3913 294.925 73.6113 294.925 72.58C294.925 72.4153 294.921 72.2247 294.912 72.008C294.904 71.7827 294.873 71.5573 294.821 71.332L295.341 71.904C295.194 72.2593 294.982 72.5583 294.704 72.801C294.427 73.035 294.102 73.2127 293.729 73.334C293.357 73.4553 292.945 73.516 292.494 73.516C291.905 73.516 291.372 73.4033 290.895 73.178C290.427 72.944 290.055 72.619 289.777 72.203C289.5 71.7783 289.361 71.2843 289.361 70.721C289.361 70.1143 289.509 69.5943 289.803 69.161C290.098 68.719 290.497 68.3767 290.999 68.134C291.511 67.8913 292.074 67.77 292.689 67.77ZM292.78 69.096C292.434 69.096 292.126 69.161 291.857 69.291C291.589 69.4123 291.376 69.59 291.22 69.824C291.073 70.0493 290.999 70.3223 290.999 70.643C290.999 71.1197 291.164 71.4967 291.493 71.774C291.823 72.0513 292.265 72.19 292.819 72.19C293.183 72.19 293.504 72.125 293.781 71.995C294.059 71.8563 294.275 71.67 294.431 71.436C294.587 71.1933 294.665 70.9247 294.665 70.63C294.665 70.344 294.592 70.0883 294.444 69.863C294.297 69.629 294.085 69.4427 293.807 69.304C293.53 69.1653 293.188 69.096 292.78 69.096ZM299.215 77V68.55L299.956 69.317H297.291V67.9H300.905V77H299.215Z" fill="black"/>
<path d="M250.727 57.096C250.231 57.096 249.767 56.992 249.335 56.784C248.903 56.576 248.551 56.276 248.279 55.884L248.975 55.068C249.207 55.388 249.467 55.636 249.755 55.812C250.051 55.98 250.375 56.064 250.727 56.064C251.687 56.064 252.167 55.496 252.167 54.36V49.644H249.131V48.6H253.355V54.3C253.355 55.236 253.131 55.936 252.683 56.4C252.243 56.864 251.591 57.096 250.727 57.096ZM258.307 57.072C257.763 57.072 257.283 56.972 256.867 56.772C256.459 56.572 256.139 56.268 255.907 55.86C255.683 55.444 255.571 54.924 255.571 54.3V50.64H256.723V54.168C256.723 54.792 256.871 55.26 257.167 55.572C257.471 55.884 257.895 56.04 258.439 56.04C258.839 56.04 259.187 55.96 259.483 55.8C259.779 55.632 260.007 55.392 260.167 55.08C260.327 54.76 260.407 54.376 260.407 53.928V50.64H261.559V57H260.467V55.284L260.647 55.74C260.439 56.164 260.127 56.492 259.711 56.724C259.295 56.956 258.827 57.072 258.307 57.072ZM267.148 50.58C267.668 50.58 268.124 50.68 268.516 50.88C268.916 51.08 269.228 51.384 269.452 51.792C269.676 52.2 269.788 52.716 269.788 53.34V57H268.636V53.472C268.636 52.856 268.484 52.392 268.18 52.08C267.884 51.768 267.464 51.612 266.92 51.612C266.512 51.612 266.156 51.692 265.852 51.852C265.548 52.012 265.312 52.248 265.144 52.56C264.984 52.872 264.904 53.26 264.904 53.724V57H263.752V50.64H264.856V52.356L264.676 51.9C264.884 51.484 265.204 51.16 265.636 50.928C266.068 50.696 266.572 50.58 267.148 50.58ZM274.752 57.072C274.072 57.072 273.472 56.932 272.952 56.652C272.44 56.372 272.04 55.988 271.752 55.5C271.472 55.012 271.332 54.452 271.332 53.82C271.332 53.188 271.468 52.628 271.74 52.14C272.02 51.652 272.4 51.272 272.88 51C273.368 50.72 273.916 50.58 274.524 50.58C275.14 50.58 275.684 50.716 276.156 50.988C276.628 51.26 276.996 51.644 277.26 52.14C277.532 52.628 277.668 53.2 277.668 53.856C277.668 53.904 277.664 53.96 277.656 54.024C277.656 54.088 277.652 54.148 277.644 54.204H272.232V53.376H277.044L276.576 53.664C276.584 53.256 276.5 52.892 276.324 52.572C276.148 52.252 275.904 52.004 275.592 51.828C275.288 51.644 274.932 51.552 274.524 51.552C274.124 51.552 273.768 51.644 273.456 51.828C273.144 52.004 272.9 52.256 272.724 52.584C272.548 52.904 272.46 53.272 272.46 53.688V53.88C272.46 54.304 272.556 54.684 272.748 55.02C272.948 55.348 273.224 55.604 273.576 55.788C273.928 55.972 274.332 56.064 274.788 56.064C275.164 56.064 275.504 56 275.808 55.872C276.12 55.744 276.392 55.552 276.624 55.296L277.26 56.04C276.972 56.376 276.612 56.632 276.18 56.808C275.756 56.984 275.28 57.072 274.752 57.072ZM281.842 57V56.184L285.262 52.884C285.566 52.596 285.79 52.344 285.934 52.128C286.086 51.904 286.186 51.7 286.234 51.516C286.29 51.324 286.318 51.14 286.318 50.964C286.318 50.532 286.166 50.192 285.862 49.944C285.558 49.696 285.114 49.572 284.53 49.572C284.082 49.572 283.678 49.648 283.318 49.8C282.958 49.944 282.646 50.172 282.382 50.484L281.566 49.776C281.886 49.368 282.314 49.056 282.85 48.84C283.394 48.616 283.99 48.504 284.638 48.504C285.222 48.504 285.73 48.6 286.162 48.792C286.594 48.976 286.926 49.244 287.158 49.596C287.398 49.948 287.518 50.364 287.518 50.844C287.518 51.116 287.482 51.384 287.41 51.648C287.338 51.912 287.202 52.192 287.002 52.488C286.802 52.784 286.514 53.116 286.138 53.484L283.09 56.424L282.802 55.956H287.878V57H281.842ZM292.285 57.096C291.629 57.096 291.041 56.928 290.521 56.592C290.009 56.256 289.601 55.768 289.297 55.128C289.001 54.488 288.853 53.712 288.853 52.8C288.853 51.888 289.001 51.112 289.297 50.472C289.601 49.832 290.009 49.344 290.521 49.008C291.041 48.672 291.629 48.504 292.285 48.504C292.933 48.504 293.517 48.672 294.037 49.008C294.557 49.344 294.965 49.832 295.261 50.472C295.557 51.112 295.705 51.888 295.705 52.8C295.705 53.712 295.557 54.488 295.261 55.128C294.965 55.768 294.557 56.256 294.037 56.592C293.517 56.928 292.933 57.096 292.285 57.096ZM292.285 56.028C292.725 56.028 293.109 55.908 293.437 55.668C293.773 55.428 294.033 55.068 294.217 54.588C294.409 54.108 294.505 53.512 294.505 52.8C294.505 52.088 294.409 51.492 294.217 51.012C294.033 50.532 293.773 50.172 293.437 49.932C293.109 49.692 292.725 49.572 292.285 49.572C291.845 49.572 291.457 49.692 291.121 49.932C290.785 50.172 290.521 50.532 290.329 51.012C290.145 51.492 290.053 52.088 290.053 52.8C290.053 53.512 290.145 54.108 290.329 54.588C290.521 55.068 290.785 55.428 291.121 55.668C291.457 55.908 291.845 56.028 292.285 56.028ZM296.725 57V56.184L300.145 52.884C300.449 52.596 300.673 52.344 300.817 52.128C300.969 51.904 301.069 51.7 301.117 51.516C301.173 51.324 301.201 51.14 301.201 50.964C301.201 50.532 301.049 50.192 300.745 49.944C300.441 49.696 299.997 49.572 299.413 49.572C298.965 49.572 298.561 49.648 298.201 49.8C297.841 49.944 297.529 50.172 297.265 50.484L296.449 49.776C296.769 49.368 297.197 49.056 297.733 48.84C298.277 48.616 298.873 48.504 299.521 48.504C300.105 48.504 300.613 48.6 301.045 48.792C301.477 48.976 301.809 49.244 302.041 49.596C302.281 49.948 302.401 50.364 302.401 50.844C302.401 51.116 302.365 51.384 302.293 51.648C302.221 51.912 302.085 52.192 301.885 52.488C301.685 52.784 301.397 53.116 301.021 53.484L297.973 56.424L297.685 55.956H302.761V57H296.725ZM305.164 57V49.08L305.68 49.644H303.268V48.6H306.352V57H305.164Z" fill="#505050"/>
<defs>
<filter id="filter0_bd_55_6757" x="192.45" y="32" width="171.325" height="144.482" filterUnits="userSpaceOnUse" color-interpolation-filters="sRGB">
<feFlood flood-opacity="0" result="BackgroundImageFix"/>
<feGaussianBlur in="BackgroundImageFix" stdDeviation="1.5"/>
<feComposite in2="SourceAlpha" operator="in" result="effect1_backgroundBlur_55_6757"/>
<feColorMatrix in="SourceAlpha" type="matrix" values="0 0 0 0 0 0 0 0 0 0 0 0 0 0 0 0 0 0 127 0" result="hardAlpha"/>
<feMorphology radius="7" operator="erode" in="SourceAlpha" result="effect2_dropShadow_55_6757"/>
<feOffset dy="44"/>
<feGaussianBlur stdDeviation="22"/>
<feComposite in2="hardAlpha" operator="out"/>
<feColorMatrix type="matrix" values="0 0 0 0 0 0 0 0 0 0 0 0 0 0 0 0 0 0 0.08 0"/>
<feBlend mode="normal" in2="effect1_backgroundBlur_55_6757" result="effect2_dropShadow_55_6757"/>
<feBlend mode="normal" in="SourceGraphic" in2="effect2_dropShadow_55_6757" result="shape"/>
</filter>
</defs>
</svg>
