<svg width="24" height="24" viewBox="0 0 24 24" fill="none" xmlns="http://www.w3.org/2000/svg">
<g id="vuesax/linear/people">
<g id="people">
<g id="Group">
<path id="Vector" d="M18 7.16C17.94 7.15 17.87 7.15 17.81 7.16C16.43 7.11 15.33 5.98 15.33 4.58C15.33 3.15 16.48 2 17.91 2C19.34 2 20.49 3.16 20.49 4.58C20.48 5.98 19.38 7.11 18 7.16Z" stroke="#292D32" stroke-width="1.5" stroke-linecap="round" stroke-linejoin="round"/>
<path id="Vector_2" d="M16.97 14.4402C18.34 14.6702 19.85 14.4302 20.91 13.7202C22.32 12.7802 22.32 11.2402 20.91 10.3002C19.84 9.59016 18.31 9.35016 16.94 9.59016" stroke="#292D32" stroke-width="1.5" stroke-linecap="round" stroke-linejoin="round"/>
</g>
<g id="Group_2">
<path id="Vector_3" d="M5.97 7.16C6.03 7.15 6.1 7.15 6.16 7.16C7.54 7.11 8.64 5.98 8.64 4.58C8.64 3.15 7.49 2 6.06 2C4.63 2 3.48 3.16 3.48 4.58C3.49 5.98 4.59 7.11 5.97 7.16Z" stroke="#292D32" stroke-width="1.5" stroke-linecap="round" stroke-linejoin="round"/>
<path id="Vector_4" d="M7 14.4402C5.63 14.6702 4.12 14.4302 3.06 13.7202C1.65 12.7802 1.65 11.2402 3.06 10.3002C4.13 9.59016 5.66 9.35016 7.03 9.59016" stroke="#292D32" stroke-width="1.5" stroke-linecap="round" stroke-linejoin="round"/>
</g>
<g id="Group_3">
<path id="Vector_5" d="M12 14.6302C11.94 14.6202 11.87 14.6202 11.81 14.6302C10.43 14.5802 9.33 13.4502 9.33 12.0502C9.33 10.6202 10.48 9.47021 11.91 9.47021C13.34 9.47021 14.49 10.6302 14.49 12.0502C14.48 13.4502 13.38 14.5902 12 14.6302Z" stroke="#292D32" stroke-width="1.5" stroke-linecap="round" stroke-linejoin="round"/>
<path id="Vector_6" d="M9.09 17.7804C7.68 18.7204 7.68 20.2603 9.09 21.2003C10.69 22.2703 13.31 22.2703 14.91 21.2003C16.32 20.2603 16.32 18.7204 14.91 17.7804C13.32 16.7204 10.69 16.7204 9.09 17.7804Z" stroke="#292D32" stroke-width="1.5" stroke-linecap="round" stroke-linejoin="round"/>
</g>
</g>
</g>
</svg>
