<svg width="7" height="12" viewBox="0 0 7 12" fill="none" xmlns="http://www.w3.org/2000/svg">
<path id="Vector" d="M5.53194 12C5.66345 12 5.79495 11.9516 5.89878 11.8477C6.0995 11.647 6.0995 11.3148 5.89878 11.1141L1.38601 6.6013C1.05379 6.26907 1.05379 5.7292 1.38601 5.39697L5.89878 0.884211C6.0995 0.68349 6.0995 0.351262 5.89878 0.150541C5.69805 -0.0501802 5.36583 -0.0501802 5.16511 0.150541L0.652344 4.6633C0.299352 5.01629 0.0986314 5.49387 0.0986314 5.99914C0.0986314 6.5044 0.29243 6.98198 0.652344 7.33497L5.16511 11.8477C5.26893 11.9446 5.40043 12 5.53194 12Z" fill="#C9C9C9"/>
</svg>
