<svg width="25" height="22" viewBox="0 0 25 22" fill="none" xmlns="http://www.w3.org/2000/svg">
<g id="Attach / 24 / Outline">
<path id="Vector" d="M19.0701 11.4289L19.0376 11.4587L12.8199 17.1328L12.8155 17.1368L12.8154 17.1367C11.981 17.8123 10.8964 18.1709 9.78353 18.141C8.6707 18.1112 7.61084 17.6951 6.82115 16.9756C6.0312 16.2559 5.57103 15.2864 5.53802 14.2648C5.50501 13.2431 5.90183 12.2503 6.6443 11.4891L6.64842 11.4849L6.64853 11.485L14.6973 4.1517L14.6992 4.14998L14.6992 4.15001C15.1988 3.71766 15.8598 3.47784 16.5455 3.47784C17.2311 3.47784 17.8921 3.71766 18.3917 4.15001L18.3941 4.15211L18.3941 4.15215C18.8816 4.60232 19.1569 5.21138 19.1569 5.84812C19.1569 6.48486 18.8816 7.09392 18.3941 7.54409L18.3935 7.54459L11.4528 13.8592C11.375 13.9352 11.2821 13.9961 11.1796 14.0389C11.0765 14.0819 10.9654 14.106 10.8526 14.1098C10.7398 14.1136 10.6271 14.0971 10.521 14.0612C10.4148 14.0252 10.3169 13.9704 10.233 13.8995C10.1491 13.8285 10.0808 13.7427 10.0325 13.6466C9.98412 13.5505 9.95684 13.4462 9.95251 13.3398C9.94818 13.2334 9.96693 13.1274 10.0074 13.0281C10.0479 12.9288 10.1092 12.8384 10.1873 12.7617L10.19 12.7591L10.1901 12.7591L15.3513 8.06587L19.0701 11.4289ZM19.0701 11.4289V11.4121M19.0701 11.4289V11.4121M19.0701 11.4121C19.1472 11.3485 19.2361 11.2971 19.3332 11.2605C19.4443 11.2186 19.5637 11.1969 19.6845 11.1969C19.8052 11.1969 19.9246 11.2186 20.0358 11.2605C20.1469 11.3024 20.2473 11.3637 20.3315 11.4404C20.4156 11.517 20.4818 11.6075 20.5268 11.7064C20.5717 11.8053 20.5947 11.9109 20.5947 12.0173C20.5947 12.1237 20.5717 12.2293 20.5268 12.3281C20.4818 12.427 20.4156 12.5175 20.3315 12.5942L14.1051 18.2579C12.9373 19.2446 11.395 19.7841 9.79924 19.7618C8.20283 19.7396 6.679 19.1569 5.54487 18.1375C4.41101 17.1184 3.75441 15.742 3.70853 14.2957C3.66268 12.8503 4.23024 11.4427 5.29611 10.3661L13.3417 3.03573C14.1805 2.32421 15.2912 1.93567 16.4404 1.95415C17.5901 1.97263 18.6855 2.39705 19.4961 3.13562C20.3065 3.87393 20.7687 4.86799 20.7888 5.90768C20.809 6.94681 20.386 7.95438 19.6057 8.71792L12.6759 15.0409C12.1675 15.4817 11.4908 15.7289 10.7855 15.7289C10.0802 15.7289 9.40344 15.4817 8.89498 15.0407C8.64682 14.8162 8.4504 14.5497 8.31651 14.2568C8.1825 13.9637 8.11366 13.6496 8.11366 13.3327C8.11366 13.0158 8.1825 12.7017 8.31651 12.4086C8.45054 12.1154 8.64723 11.8486 8.89575 11.624L8.89611 11.6236L14.0573 6.91204L19.0701 11.4121ZM15.6145 7.48895C15.6145 7.70335 15.5211 7.91108 15.3513 8.0658L14.0574 6.91198C14.2275 6.757 14.4601 6.66854 14.7043 6.66854C14.9485 6.66854 15.1811 6.75703 15.3513 6.91204C15.5211 7.06677 15.6145 7.27453 15.6145 7.48895Z" fill="black" stroke="#C9C9C9" stroke-width="0.2"/>
</g>
</svg>
