<svg width="14" height="14" viewBox="0 0 14 14" fill="none" xmlns="http://www.w3.org/2000/svg">
<path fill-rule="evenodd" clip-rule="evenodd" d="M2.28734 1.84849C3.30857 0.722118 4.89249 0.333496 7.02693 0.333496C7.64472 0.333496 8.21458 0.367774 8.72812 0.438122C8.83215 0.452373 8.92905 0.499013 9.00509 0.571427L12.7851 4.17143C12.8619 4.24454 12.9134 4.34015 12.9323 4.44447C13.0659 5.18268 13.1269 6.03421 13.1269 7.00016C13.1269 9.33339 12.7811 11.0437 11.772 12.1547C10.7498 13.2802 9.16402 13.6668 7.02693 13.6668C4.89298 13.6668 3.30888 13.2801 2.28749 12.1545C1.27941 11.0436 0.933594 9.33341 0.933594 7.00016C0.933594 4.67003 1.27948 2.96011 2.28734 1.84849ZM3.02818 2.52017C2.2877 3.33688 1.93359 4.71029 1.93359 7.00016C1.93359 9.29358 2.28778 10.6667 3.02803 11.4825C3.75497 12.2836 4.96755 12.6668 7.02693 12.6668C9.08983 12.6668 10.3041 12.2835 11.0318 11.4823C11.7727 10.6666 12.1269 9.2936 12.1269 7.00016C12.1269 6.14583 12.0769 5.40938 11.9754 4.78126L8.43423 1.40871C8.01365 1.35898 7.5434 1.3335 7.02693 1.3335C4.96803 1.3335 3.75528 1.71821 3.02818 2.52017Z" fill="white"/>
<path fill-rule="evenodd" clip-rule="evenodd" d="M8.28955 0.388672C8.56569 0.388672 8.78955 0.61253 8.78955 0.888672V2.66267C8.78955 3.625 9.5695 4.40467 10.5322 4.40467H12.4996C12.7757 4.40467 12.9996 4.62853 12.9996 4.90467C12.9996 5.18081 12.7757 5.40467 12.4996 5.40467H10.5322C9.0176 5.40467 7.78955 4.17767 7.78955 2.66267V0.888672C7.78955 0.61253 8.01341 0.388672 8.28955 0.388672Z" fill="white"/>
<path fill-rule="evenodd" clip-rule="evenodd" d="M4.7749 7.65381C4.7749 7.37767 4.99876 7.15381 5.2749 7.15381H8.54157C8.81771 7.15381 9.04157 7.37767 9.04157 7.65381C9.04157 7.92995 8.81771 8.15381 8.54157 8.15381H5.2749C4.99876 8.15381 4.7749 7.92995 4.7749 7.65381Z" fill="white"/>
<path fill-rule="evenodd" clip-rule="evenodd" d="M6.90918 5.52051C7.18532 5.52051 7.40918 5.74437 7.40918 6.02051V9.28717C7.40918 9.56332 7.18532 9.78717 6.90918 9.78717C6.63304 9.78717 6.40918 9.56332 6.40918 9.28717V6.02051C6.40918 5.74437 6.63304 5.52051 6.90918 5.52051Z" fill="white"/>
</svg>
