<svg width="720" height="720" viewBox="0 0 720 720" fill="none" xmlns="http://www.w3.org/2000/svg">
<g clip-path="url(#clip0_13_18010)">
<mask id="mask0_13_18010" style="mask-type:luminance" maskUnits="userSpaceOnUse" x="0" y="0" width="720" height="720">
<path d="M720 0H0V720H720V0Z" fill="white"/>
</mask>
<g mask="url(#mask0_13_18010)">
<path d="M602.936 213.464L587.286 225.455L571.636 213.464C558.788 203.619 551.253 188.354 551.253 172.167V142.077L587.286 134.904L623.319 142.077V172.167C623.319 188.354 615.784 203.619 602.936 213.464Z" fill="#F0F2F5"/>
<path d="M582.435 188.396L572.197 178.122C571.561 177.484 571.562 176.452 572.199 175.815L575.468 172.545C576.107 171.905 577.145 171.907 577.782 172.548L583.587 178.39L596.794 165.258C597.432 164.624 598.464 164.625 599.1 165.262L602.372 168.534C603.011 169.173 603.01 170.209 602.37 170.846L584.744 188.4C584.105 189.037 583.071 189.035 582.435 188.396Z" fill="white"/>
<path d="M179.937 316.368C178.825 316.368 177.711 315.968 176.828 315.157C165.671 304.92 151.177 299.281 136.016 299.281C120.857 299.281 106.361 304.92 95.1998 315.158C93.3271 316.875 90.417 316.75 88.6996 314.877C86.9819 313.005 87.1077 310.094 88.9801 308.377C101.843 296.578 118.548 290.08 136.016 290.08C153.487 290.08 170.19 296.578 183.049 308.378C184.921 310.096 185.046 313.006 183.328 314.878C182.421 315.867 181.181 316.368 179.937 316.368Z" fill="#F0F2F5"/>
<path d="M168.552 332.893C167.347 332.893 166.144 332.423 165.241 331.487C157.517 323.482 147.138 319.073 136.016 319.073C124.892 319.073 114.513 323.48 106.792 331.482C105.027 333.312 102.115 333.363 100.287 331.598C98.4581 329.834 98.406 326.922 100.17 325.093C109.642 315.277 122.372 309.872 136.016 309.872C149.658 309.872 162.388 315.279 171.862 325.098C173.627 326.927 173.575 329.839 171.746 331.603C170.854 332.465 169.702 332.893 168.552 332.893Z" fill="#F0F2F5"/>
<path d="M156.907 349.792C155.451 349.792 154.019 349.103 153.125 347.816C149.23 342.211 142.835 338.865 136.017 338.865C129.201 338.865 122.802 342.211 118.901 347.815C117.449 349.899 114.582 350.413 112.497 348.962C110.411 347.51 109.898 344.643 111.35 342.557C116.97 334.484 126.191 329.663 136.017 329.663C145.847 329.663 155.067 334.486 160.682 342.565C162.131 344.651 161.615 347.518 159.529 348.968C158.728 349.525 157.813 349.792 156.907 349.792Z" fill="#F0F2F5"/>
<path d="M146.253 363.385C148.284 357.727 145.343 351.494 139.685 349.463C134.027 347.432 127.794 350.373 125.764 356.031C123.733 361.689 126.674 367.922 132.332 369.952C137.99 371.983 144.222 369.043 146.253 363.385Z" fill="#F0F2F5"/>
<path d="M175.001 319.205C182.094 319.205 187.845 313.454 187.845 306.361C187.845 299.267 182.094 293.517 175.001 293.517C167.907 293.517 162.157 299.267 162.157 306.361C162.157 313.454 167.907 319.205 175.001 319.205Z" fill="#E1E6EB"/>
<path d="M172.377 312.503L167.063 307.17C166.732 306.839 166.733 306.303 167.064 305.972L168.761 304.275C169.093 303.943 169.631 303.943 169.962 304.276L172.976 307.309L179.832 300.492C180.163 300.163 180.699 300.163 181.029 300.494L182.727 302.193C183.059 302.524 183.058 303.062 182.726 303.393L173.576 312.506C173.245 312.836 172.708 312.835 172.377 312.503Z" fill="white"/>
<path d="M498.03 182.287H429.711C420.207 182.287 412.502 174.583 412.502 165.078C412.502 155.574 420.207 147.869 429.711 147.869H498.03C507.535 147.869 515.239 155.574 515.239 165.078C515.239 174.583 507.534 182.287 498.03 182.287Z" fill="#F0F2F5"/>
<path d="M496.683 169.458C499.102 169.458 501.063 167.497 501.063 165.078C501.063 162.659 499.102 160.698 496.683 160.698C494.265 160.698 492.304 162.659 492.304 165.078C492.304 167.497 494.265 169.458 496.683 169.458Z" fill="white"/>
<path d="M474.809 169.458C477.227 169.458 479.188 167.497 479.188 165.078C479.188 162.659 477.227 160.698 474.809 160.698C472.39 160.698 470.429 162.659 470.429 165.078C470.429 167.497 472.39 169.458 474.809 169.458Z" fill="white"/>
<path d="M452.933 169.458C455.352 169.458 457.313 167.497 457.313 165.078C457.313 162.659 455.352 160.698 452.933 160.698C450.514 160.698 448.553 162.659 448.553 165.078C448.553 167.497 450.514 169.458 452.933 169.458Z" fill="white"/>
<path d="M431.058 169.458C433.477 169.458 435.438 167.497 435.438 165.078C435.438 162.659 433.477 160.698 431.058 160.698C428.639 160.698 426.678 162.659 426.678 165.078C426.678 167.497 428.639 169.458 431.058 169.458Z" fill="white"/>
<path d="M287.039 621.769C350.811 621.769 402.509 606.736 402.509 588.191C402.509 569.646 350.811 554.613 287.039 554.613C223.267 554.613 171.569 569.646 171.569 588.191C171.569 606.736 223.267 621.769 287.039 621.769Z" fill="#F0F2F5"/>
<path d="M287.253 88.5442C297.305 91.8175 306.487 96.5342 314.64 102.39C315.449 102.97 316.247 103.564 317.036 104.163C325.363 110.538 332.548 118.127 338.406 126.585C347.888 140.269 353.901 156.226 355.693 172.972C357.147 186.553 355.821 200.652 351.318 214.479C349.926 218.754 348.275 222.867 346.384 226.815C344.651 230.433 342.719 233.91 340.604 237.237L340.604 237.239C316.718 274.788 269.658 292.961 225.384 278.544C221.622 277.319 217.982 275.894 214.473 274.28L214.471 274.279C184.206 260.368 163.641 232.614 157.969 201.236C155.126 185.51 156.025 168.873 161.32 152.611C166.893 135.497 176.645 120.915 189.079 109.625L189.084 109.619C197.608 101.879 207.396 95.6873 217.96 91.2888L217.968 91.2867C239.23 82.4362 263.638 80.855 287.253 88.5442Z" fill="white"/>
<path d="M320.505 204.015L322.924 204.802L325.344 210.516L334.212 213.403L334.49 214.616L337.601 216.076C337.601 216.076 336.314 220.029 336.265 220.18C336.215 220.332 337.539 224.183 337.539 224.183L339.381 222.652L340.513 223.134L340.25 223.944L341.347 224.188L341.355 225.368L344.748 226.137L343.682 228.032L342.37 228.445L341.859 230.015L343.076 230.411C343.076 230.411 344.678 228.244 344.977 227.501C345.221 226.89 346.084 226.821 346.385 226.815C344.652 230.433 342.718 233.91 340.605 237.236L340.602 237.239L338.746 239.184L318.337 252.294L311.566 252.694L291.06 262.745L286.045 261.112L284.03 262.136L269.554 258.369L268.07 259.473L266.239 259.407L267.757 260.232L268.209 262.299L262.877 265.261L254.792 267.326L241.728 271.525L241.32 272.778L243.096 273.009L243.172 274.018L235.596 277.296L220.821 273.365L208.876 270.357L209.916 271.673L221.365 275.599L220.134 276.372L214.473 274.279L214.471 274.278C184.206 260.368 163.641 232.613 157.969 201.237L158.596 200.897L157.152 195.669L158.698 191.347L157.48 188.642C157.48 188.642 160.317 185.089 160.38 184.897C160.441 184.708 159.46 188.796 159.46 188.796L161.067 193.307L159.94 194.408L162.602 199.122L161.663 203.085L162.526 203.435L164.416 199.784L163.733 195.435L165.762 196.725L166.324 195.857L165.721 193.843L163.133 190.832L163.569 186.916L165.041 183.477L167.528 184.427L168.525 182.653L170.402 183.335L170.138 184.788L173.471 183.145L174.547 183.496L174.388 184.842L175.802 185.443L175.039 187.572L173.562 187.163L173.025 188.597L177.79 190.079L177.117 193.006L175.299 194.722L173.008 195.096L171.976 197.837L170.283 196.377L171.147 193.511L170.403 189.561L169.159 189.086L169.73 192.489L167.268 189.521L166.362 192.303L168.757 194.832L169.008 197.5L167.624 198.31L167.843 199.571L169.124 199.077L171.776 199.521L171.538 201.332L170.655 201.464L169.974 203.342L169.135 203.559C167.993 211.791 173.313 218.006 173.313 218.006L177.074 217.195L178.337 214.178L183.36 216.374L183.197 217.302C183.197 217.302 185.137 218.003 185.326 218.064C185.516 218.127 185.95 217.008 186.012 216.818C186.074 216.628 180.196 212.336 180.196 212.336C180.196 212.336 181.114 211.235 181.239 211.067C181.364 210.897 180.711 207.747 180.711 207.747L176.896 206.574L173.679 200.559L174.248 197.738L176.39 197.176L177.601 196.031L178.526 195.982L179.027 198.525L180.021 199.338L181.642 196.298L179.966 194.142L180.124 192.796L187.181 195.249C187.181 195.249 187.79 193.379 187.833 193.249C187.875 193.118 191.986 191.572 191.986 191.572L193.447 191.518L196.716 195.373L200.632 192.943L203.986 194.469L201.764 197.448L200.995 201.433C198.459 200.511 196.231 196.563 196.231 196.563L194.883 196.124L195.526 199.17C194.651 202.157 196.641 203.576 196.641 203.576L196.867 204.948L194.01 203.825C194.01 203.825 192.764 207.653 192.722 207.783C192.679 207.914 194.422 213.196 194.467 213.355C194.513 213.514 195.692 212.841 195.692 212.841L195.017 209.157L195.633 206.228L197.252 206.133L197.831 208.052L199.482 208.301L200.106 206.387L201.465 206.348L201.577 203.787L204.409 204.996L203.831 209.572L204.653 214.306L201.604 213.611L201.914 219.743L206.358 221.191C206.358 221.191 204.801 225.97 204.736 226.172C204.67 226.374 209.112 230.798 209.112 230.798L208.833 232.792L213.412 234.283L219.2 246.233L226.827 248.245L230.264 250.509L227.963 251.578L220.524 250.233L219.844 251.493L217.614 251.104C217.614 251.104 216.552 255.606 216.492 255.788C216.432 255.972 217.957 256.669 217.957 256.669L217.584 258.023L215.414 257.861L214.847 260.841L217.431 265.521L221.429 266.89L230.77 270.673L237.53 270.18L237.746 266.615L233.24 265.148L234.489 261.313L238.077 261.881L239.857 264.271L246.188 266.333L248.052 263.708L247.397 262.62L251.997 260.874L260.552 263.114L263.707 262.746L264.34 261.919L262.883 259.867L263.233 257.494L267.567 256.917L267.817 255.599L266.116 255.269L261.861 249.32L262.487 247.398L265.592 248.273L265.57 249.035L268.226 249.9L269.295 248.983L265.171 246.51L264.956 244.676L268.297 244.272L268.768 241.714L271.693 240.362L269.697 238.581L270.052 236.935L272.898 235.691L273.327 234.655L271.446 234.043L271.125 232.945L274.732 233.668L274.66 234.863L276.05 235.316C276.05 235.316 277.322 232.792 277.362 232.671C277.402 232.547 283.132 230.626 283.132 230.626L284.97 224.984L297.057 220.45L298.833 225.129L300.123 225.549L298.942 221.509L299.651 219.332L303.295 222.926L304.596 221.122L301.536 218.876C301.536 218.876 302.393 216.66 302.35 216.376C302.307 216.096 306.334 212.772 306.413 212.528C306.492 212.286 308.761 207.23 308.761 207.23L310.641 207.487L313.276 204.87C317.09 198.895 320.505 204.015 320.505 204.015Z" fill="#F0F2F5"/>
<path d="M183.807 171.413L183.111 173.549L186.242 174.569L185.93 175.526L187.072 175.898L186.424 177.888L184.12 177.708L184.531 178.697L184.206 179.569L181.393 180.202C181.393 180.202 179.65 179.675 179.588 179.614C179.526 179.553 178.502 178.446 178.502 178.446L177.422 179.887L175.506 179.263L175.247 177.182L173.485 175.835L172.71 177.09L169.643 174.746L169.914 173.164L166.92 172.474L166.16 174.182L165.415 174.469L164.58 176.031L163.224 174.815L163.721 169.477L162.126 164.924L163.098 161.941L161.504 158.203L165.445 156.735L165.722 155.135C165.722 155.135 170.01 155.228 170.083 155.13C170.155 155.031 174.118 153.999 174.118 153.999L175.127 154.653L174.6 156.397C174.6 156.397 178.366 155.464 178.331 155.575C178.295 155.685 178.716 156.393 178.716 156.393C178.716 156.393 175.372 158.278 175.569 158.301C175.765 158.324 177.114 158.56 177.333 158.387C177.553 158.214 179.373 157.503 179.373 157.503C179.373 157.503 180.2 160.217 180.164 160.327C180.128 160.438 179.259 163.984 179.259 163.984L181.916 165.583L180.846 170.246L183.807 171.413Z" fill="#F0F2F5"/>
<path d="M234.026 257.832L234.127 255.573C234.127 255.573 233.162 255.339 233.203 255.273C233.245 255.206 234.343 252.02 234.343 252.02L235.648 251.824L239.113 250.009L242.238 247.202L244.897 247.768L243.691 250.919L240.069 251.341C240.069 251.341 237.057 252.783 237.003 252.826C236.949 252.868 235.967 257.053 235.967 257.053L234.026 257.832Z" fill="#F0F2F5"/>
<path d="M234.03 249.062C233.972 249.043 232.059 248.526 232.059 248.526L232.797 246.26L234.191 246.544L234.2 247.885L235.052 248.332L234.03 249.062Z" fill="#F0F2F5"/>
<path d="M249.964 254.509L250.469 253.739L251.14 253.767L251.139 252.726L248.57 251.549L246.734 251.971L246.613 252.929L247.609 253.849L249.964 254.509Z" fill="#F0F2F5"/>
<path d="M247.556 248.076L247.592 246.728L245.975 244.46L246.94 241.228L248.768 240.443L249.381 239.538L253.023 240.32L252.242 242.721L251.187 244.034L251.222 245.85L249.231 246.519L249.312 248.032L247.556 248.076Z" fill="#F0F2F5"/>
<path d="M252.238 237.689L251.57 237.472L252.179 235.951L253.132 236.077L254.262 235.706L255.392 236.073L255.371 238.496L253.525 239.103L252.238 237.689Z" fill="#F0F2F5"/>
<path d="M285.502 92.2612L280.257 90.177L270.815 91.0777L264.98 91.5021L267.512 92.7008L278.742 92.7587L290.5 94.6393L301.792 97.2659L314.64 102.39C315.449 102.97 316.247 103.564 317.035 104.164L323.974 113.187L320.042 111.68L316.261 109.701L320.708 113.548L322.446 113.964L325.334 117.303L329.329 118.156L338.405 126.584C347.888 140.268 353.9 156.226 355.692 172.972L355.461 176.272L343.171 150.767C343.171 150.767 331.444 139.689 331.199 139.609C330.953 139.53 320.862 136.244 320.862 136.244L315.61 130.089L312.497 129.618L311.385 130.528L313.871 134.874L309.922 135.698L306.406 135.335L306.15 138.103L310.151 142.625L309.608 146.128L307.817 151.204L310.191 154.228L309.852 155.406L302.8 157.571L299.31 157.126L291.231 162.452L284.355 160.535L282.373 157.591L276.499 156.276L274.583 157.353L268.065 154.594L259.081 146.16L257.451 142.164L248.449 138.699L246.258 127.144L243.092 117.76L244.975 111.978L248.988 110.925L251.072 113.216L254.813 110.87L255.919 107.62L260.334 105.302L260.936 103.302L257.737 101.138L255.345 101.141L256.03 98.1436L254.678 95.8506L255.509 95.097L259.791 96.7818L262.624 97.0708L258.339 94.942L258.561 93.0635L255.926 91.7195L247.772 91.7462L247.297 93.202L249.135 93.848L247.889 96.1763L245.284 97.1332L242.391 98.8256L238.755 99.0563L238.739 99.0248L238.722 98.9884C238.621 98.7793 238.289 98.0946 237.974 97.4774L237.929 97.3869L237.899 97.3269L237.897 97.3263C237.633 96.8068 237.394 96.3693 237.342 96.3525C237.209 96.309 234.429 95.2564 234.429 95.2564L235.18 93.5504L237.272 92.5238L236.791 91.0026L231.987 90.022L241.42 88.678L246.072 84.7002L269.196 84.9063L286.628 88.8035L295.528 94.4024L285.502 92.2612Z" fill="#F0F2F5"/>
<path d="M230.596 92.767L224.932 96.6221L229.97 96.2189L229.685 97.0932L225.108 98.721L228.344 99.0217L233.001 99.2494L237.897 97.3253L237.899 97.3256L237.929 97.386L237.974 97.4772L238.673 98.889L238.722 98.9885L238.74 99.0255L238.755 99.0546L238.332 100.352L240.419 101.032L243.389 99.4246L248.628 101.13L248.54 102.387L243.114 102.359L237.851 104.766L235.429 104.492L228.861 109.241L227.742 112.677L232.506 110.301L237.721 105.755L242.079 105.821L243.431 105.425L244.172 106.117L238.711 109.436L231.828 112.783L229.776 115.528L231.022 116.641L232.244 117.039L231.41 119.601L230.028 121.275L232.683 121.626L233.373 120.691L235.255 121.432L234.768 123.72L237.287 125.871L239.812 125.363L242.254 127.489L243.005 129.792L242.571 132.184L244.253 133.076L243.811 134.434L241.805 135.067L241.007 137.383L234.539 138.926L226.66 136.36L228.655 129.84L226.635 126.953L222.076 128.3L220.166 132.056L218.415 131.7L216.902 124.942L213.644 124.008C213.644 124.008 213.308 122.269 213.193 122.231C213.077 122.193 210.689 122.146 210.608 121.991C210.532 121.836 210.452 119.838 210.452 119.838L204.768 121.549L209.793 117.647L209.61 113.676C209.61 113.676 210.452 111.089 210.377 111.19C210.303 111.289 206.017 115.159 202.878 111.814L202.062 112.792C202.062 112.792 201.191 111.39 201.192 111.265C201.189 111.141 199.336 111.74 199.336 111.74L199.096 114.646L200.507 115.147C200.507 115.147 199.927 116.037 199.815 116C199.702 115.964 193.5 118.463 193.5 118.463L189.687 120.621L191.374 121.294L195.052 119.549L196.651 119.986L198.906 117.901L205.247 115.488L208.023 116.89L203.024 120.402L201.537 121.66L201.83 122.418L204.671 122.473L204.37 124.033L192.323 126.909L181.438 128.381L185.062 122.223L186.108 118.626L190.456 116.601L191.896 113.835L183.348 118.058L189.078 109.623L189.081 109.619C197.607 101.88 207.394 95.6868 217.958 91.2876L217.966 91.2848L220.299 90.7016L224.307 93.2991L231.986 90.02L236.789 90.9996L230.596 92.767Z" fill="#F0F2F5"/>
<path d="M241.871 110.782L242.789 107.963L244.255 107.616L244.976 107.027L246.785 107.616L246.369 108.893L244.653 108.923L243.285 110.595L241.871 110.782Z" fill="#F0F2F5"/>
<path d="M235.851 115.366L237.478 114.285L238.003 113.36L240.154 114.172L239.802 115.735C239.802 115.735 238.703 115.333 238.67 115.434C238.637 115.535 238.217 116.136 238.217 116.136L237.036 115.506L235.851 115.366Z" fill="#F0F2F5"/>
<path d="M237.073 120.819L237.761 121.043L238.182 120.71L238.65 121.198L238.235 122.473L237.348 122.587C237.348 122.587 236.194 121.182 236.289 121.168C236.382 121.153 237.073 120.819 237.073 120.819Z" fill="#F0F2F5"/>
<path d="M215.703 126.502L213.193 125.244L212.16 126.726L207.079 129.643L205.037 131.347L201.911 130.329L200.128 132.888L199.35 135.279L201.043 135.83L200.621 137.125L201.947 137.282L204.271 135.56C204.271 135.56 207.506 133.914 207.505 133.748C207.504 133.583 208.152 131.591 208.152 131.591L209.547 132.045L210.087 133.432C210.087 133.432 213.751 134.019 213.8 133.87C213.849 133.721 214.578 131.479 214.578 131.479L215.47 131.109L215.736 128.937L215.703 126.502Z" fill="#F0F2F5"/>
<path d="M207.28 134.777L208.598 133.774L209.793 134.163L212.122 135.637L212.516 137.473L212.062 138.868L208.3 138.579L207.245 139.282L206.031 138.611L205.141 136.1L207.28 134.777Z" fill="#F0F2F5"/>
<path d="M189.791 150.525L188.535 148.577L188.987 147.185L187.103 146.22L185.45 148.056L185.159 149.896L185.954 150.155L184.952 152.423L183.961 152.628L183.778 154.811L185.352 154.839L186.493 153.628L187.274 153.662L188.064 151.37L189.791 150.525Z" fill="#F0F2F5"/>
<path d="M163.865 182.258L163.18 184.361L162.533 184.15L162.154 186.413L161.193 184.967L159.867 181.314L158.696 179.262L159.678 178.628L161.157 181.137L161.509 182.714L162.726 180.992L163.865 182.258Z" fill="#F0F2F5"/>
</g>
<path d="M526.569 537.698H234.551C225.698 537.698 218.522 530.521 218.522 521.668V453.05C218.522 444.197 225.698 437.02 234.551 437.02H526.569C535.422 437.02 542.598 444.197 542.598 453.05V521.668C542.599 530.521 535.422 537.698 526.569 537.698Z" fill="white"/>
<path d="M526.569 421.747H234.551C225.698 421.747 218.522 414.571 218.522 405.718V337.099C218.522 328.247 225.698 321.07 234.551 321.07H526.569C535.422 321.07 542.598 328.247 542.598 337.099V405.717C542.599 414.571 535.422 421.747 526.569 421.747Z" fill="white"/>
<path d="M526.569 305.797H234.551C225.698 305.797 218.522 298.62 218.522 289.767V221.149C218.522 212.296 225.698 205.119 234.551 205.119H526.569C535.422 205.119 542.598 212.296 542.598 221.149V289.767C542.599 298.62 535.422 305.797 526.569 305.797Z" fill="white"/>
<path d="M526.569 537.784H234.551C225.665 537.784 218.436 530.554 218.436 521.668V453.05C218.436 444.164 225.666 436.935 234.551 436.935H526.569C535.455 436.935 542.684 444.164 542.684 453.05V521.668C542.684 530.554 535.455 537.784 526.569 537.784ZM234.551 437.106C225.76 437.106 218.607 444.259 218.607 453.05V521.669C218.607 530.46 225.76 537.613 234.551 537.613H526.569C535.361 537.613 542.513 530.46 542.513 521.669V453.05C542.513 444.259 535.361 437.106 526.569 437.106H234.551Z" fill="#1F4168"/>
<path d="M526.569 421.833H234.551C225.665 421.833 218.436 414.604 218.436 405.718V337.099C218.436 328.213 225.666 320.984 234.551 320.984H526.569C535.455 320.984 542.684 328.214 542.684 337.099V405.718C542.684 414.604 535.455 421.833 526.569 421.833ZM234.551 321.156C225.76 321.156 218.607 328.308 218.607 337.099V405.718C218.607 414.509 225.76 421.662 234.551 421.662H526.569C535.361 421.662 542.513 414.509 542.513 405.718V337.099C542.513 328.308 535.361 321.156 526.569 321.156H234.551Z" fill="#1F4168"/>
<path d="M526.077 305.797H235.044V321.07H526.077V305.797Z" fill="#1F4168"/>
<path d="M526.077 421.748H235.044V437.02H526.077V421.748Z" fill="#1F4168"/>
<path d="M526.569 305.883H234.551C225.665 305.883 218.436 298.654 218.436 289.767V221.149C218.436 212.263 225.666 205.034 234.551 205.034H526.569C535.455 205.034 542.684 212.263 542.684 221.149V289.767C542.684 298.653 535.455 305.883 526.569 305.883ZM234.551 205.205C225.76 205.205 218.607 212.357 218.607 221.149V289.767C218.607 298.559 225.76 305.711 234.551 305.711H526.569C535.361 305.711 542.513 298.559 542.513 289.767V221.149C542.513 212.357 535.361 205.205 526.569 205.205H234.551V205.205Z" fill="#1F4168"/>
<path d="M247.078 230.96H238.133C234.693 230.96 231.904 228.171 231.904 224.731C231.904 221.291 234.693 218.502 238.133 218.502H247.078C250.518 218.502 253.307 221.291 253.307 224.731C253.307 228.171 250.518 230.96 247.078 230.96Z" fill="#F0F2F5"/>
<path d="M247.078 346.911H238.133C234.693 346.911 231.904 344.122 231.904 340.682C231.904 337.241 234.693 334.452 238.133 334.452H247.078C250.518 334.452 253.307 337.241 253.307 340.682C253.307 344.122 250.518 346.911 247.078 346.911Z" fill="#F0F2F5"/>
<path d="M247.078 462.862H238.133C234.693 462.862 231.904 460.073 231.904 456.632C231.904 453.192 234.693 450.403 238.133 450.403H247.078C250.518 450.403 253.307 453.192 253.307 456.632C253.307 460.073 250.518 462.862 247.078 462.862Z" fill="#F0F2F5"/>
<path d="M244.145 383.931C244.247 393.079 240.881 401.455 235.265 407.811C234.887 408.24 234.5 408.662 234.099 409.07C230.039 413.246 224.958 416.427 219.253 418.21C216.761 418.988 214.508 420.394 212.681 422.259L209.711 425.297L207.157 422.804C205.121 420.809 202.577 419.424 199.813 418.714C184.707 414.843 173.444 401.266 173.159 384.956C173.012 376.598 175.796 368.845 180.562 362.681C180.911 362.228 181.271 361.786 181.642 361.351C188.06 353.818 197.564 348.974 208.186 348.833C227.818 348.576 243.925 364.306 244.145 383.931Z" fill="#00B3F0"/>
<path d="M213.423 374.181C213.423 373.317 213.192 372.501 212.794 371.799C212.794 371.799 212.794 371.798 212.793 371.797C213.317 371.522 213.678 370.979 213.678 370.347V369.209C213.678 368.802 213.349 368.472 212.942 368.472C212.535 368.472 212.205 368.802 212.205 369.209V370.347C212.205 370.441 212.128 370.518 212.034 370.518H211.73C211.729 370.518 211.729 370.517 211.728 370.516C210.888 369.799 209.798 369.367 208.604 369.367C207.415 369.367 206.325 369.799 205.485 370.516C205.484 370.517 205.483 370.517 205.483 370.518H205.176C205.081 370.518 205.005 370.441 205.005 370.347V369.209C205.005 368.802 204.675 368.472 204.268 368.472C203.861 368.472 203.531 368.802 203.531 369.209V370.347C203.531 370.981 203.895 371.525 204.421 371.8C204.421 371.801 204.42 371.802 204.419 371.804C204.021 372.506 203.79 373.317 203.79 374.181C203.79 374.756 203.893 375.306 204.075 375.817C205.455 375.07 206.988 374.653 208.604 374.653C210.22 374.653 211.753 375.07 213.134 375.817C213.32 375.306 213.423 374.756 213.423 374.181Z" fill="white"/>
<path d="M202.176 379.19H198.53C197.466 379.19 196.6 378.324 196.6 377.26V373.916C196.6 373.509 196.271 373.179 195.864 373.179C195.457 373.179 195.127 373.509 195.127 373.916V377.26C195.127 379.137 196.654 380.663 198.53 380.663H201.08C201.079 380.664 201.079 380.665 201.078 380.666C200.312 381.894 199.757 383.313 199.472 384.856H192.904C192.501 384.856 192.167 385.185 192.167 385.593C192.167 386 192.501 386.33 192.904 386.33H199.275C199.25 386.659 199.236 386.998 199.236 387.336C199.236 388.442 199.368 389.512 199.623 390.524H198.53C196.653 390.524 195.127 392.051 195.127 393.927V397.271C195.127 397.678 195.456 398.008 195.863 398.008C196.27 398.008 196.6 397.678 196.6 397.271V393.927C196.6 392.863 197.466 391.998 198.53 391.998H200.085L200.086 391.999C201.466 395.614 204.399 398.193 207.867 398.513V386.33V384.856V378.941V376.166C206.776 376.264 205.735 376.588 204.782 377.104C203.81 377.62 202.932 378.331 202.176 379.19Z" fill="white"/>
<path d="M224.304 384.856H217.736C217.451 383.314 216.896 381.894 216.13 380.666H218.679C220.556 380.666 222.084 379.138 222.084 377.262V373.916C222.084 373.509 221.755 373.179 221.347 373.179C220.939 373.179 220.61 373.509 220.61 373.916V377.262C220.61 378.323 219.745 379.192 218.679 379.192H215.035C214.278 378.333 213.399 377.625 212.431 377.109C211.478 376.594 210.436 376.264 209.341 376.166V378.941V384.856V386.33V398.513C212.809 398.194 215.742 395.615 217.123 391.999L217.123 391.998H218.68C219.744 391.998 220.609 392.864 220.609 393.927V397.271C220.609 397.678 220.939 398.008 221.346 398.008C221.753 398.008 222.083 397.678 222.083 397.271V393.927C222.083 392.051 220.557 390.524 218.68 390.524H217.584C217.84 389.512 217.972 388.442 217.972 387.337C217.972 386.998 217.957 386.659 217.933 386.33H224.304C224.712 386.33 225.041 386.001 225.041 385.593C225.041 385.185 224.712 384.856 224.304 384.856Z" fill="white"/>
<path d="M235.265 407.811C234.887 408.24 234.5 408.661 234.099 409.069L180.562 362.681C180.911 362.228 181.271 361.786 181.642 361.351L235.265 407.811Z" fill="white"/>
<path d="M363.36 268.559H279.818C272.567 268.559 266.69 262.681 266.69 255.431V171.888C266.69 164.638 272.567 158.76 279.818 158.76H363.36C370.61 158.76 376.488 164.638 376.488 171.888V255.431C376.488 262.681 370.61 268.559 363.36 268.559Z" fill="#00B3F0"/>
<path d="M303.86 186.573C303.335 186.573 302.835 186.267 302.613 185.755C302.316 185.067 302.631 184.269 303.318 183.971C303.896 183.72 317.695 177.875 337.101 181.962C337.835 182.116 338.304 182.836 338.15 183.57C337.995 184.303 337.27 184.769 336.542 184.618C318.031 180.721 304.531 186.403 304.396 186.462C304.222 186.537 304.039 186.573 303.86 186.573Z" fill="white"/>
<path d="M314.466 178.441C313.822 178.441 313.251 177.982 313.132 177.326C312.998 176.589 313.487 175.883 314.224 175.748C314.471 175.703 320.328 174.656 326.299 175.043C327.047 175.092 327.614 175.737 327.566 176.485C327.518 177.233 326.874 177.805 326.123 177.752C320.484 177.386 314.766 178.408 314.71 178.419C314.628 178.434 314.546 178.441 314.466 178.441Z" fill="white"/>
<path d="M344.445 192.278C344.281 192.278 344.114 192.248 343.951 192.184C339.938 190.616 335.755 189.537 331.52 188.978C330.777 188.88 330.254 188.198 330.352 187.454C330.451 186.711 331.131 186.191 331.875 186.287C336.327 186.875 340.722 188.008 344.939 189.656C345.638 189.929 345.982 190.716 345.709 191.414C345.5 191.95 344.988 192.278 344.445 192.278Z" fill="white"/>
<path d="M296.585 195.512C296.125 195.512 295.675 195.277 295.421 194.853C295.035 194.211 295.243 193.377 295.886 192.991C296.401 192.682 308.692 185.409 325.78 185.817C326.529 185.834 327.123 186.455 327.106 187.205C327.089 187.954 326.472 188.574 325.718 188.53C309.411 188.155 297.402 195.246 297.283 195.318C297.064 195.449 296.824 195.512 296.585 195.512Z" fill="white"/>
<path d="M293.09 204.302C292.701 204.302 292.316 204.136 292.047 203.815C291.567 203.24 291.644 202.385 292.217 201.905C292.473 201.69 298.593 196.632 308.748 193.597C318.117 190.796 332.802 189.296 349.568 198.052C350.233 198.398 350.49 199.218 350.143 199.883C349.796 200.547 348.976 200.806 348.312 200.458C335.538 193.787 322.527 192.343 309.637 196.164C299.983 199.027 294.017 203.938 293.959 203.987C293.705 204.199 293.396 204.302 293.09 204.302Z" fill="white"/>
<path d="M351.455 209.315C351.158 209.315 350.859 209.218 350.609 209.019C340.766 201.163 328.55 198.082 316.214 200.345C315.477 200.483 314.769 199.992 314.635 199.255C314.499 198.517 314.988 197.81 315.724 197.675C328.845 195.267 341.836 198.544 352.302 206.897C352.888 207.365 352.984 208.219 352.517 208.805C352.249 209.14 351.854 209.315 351.455 209.315Z" fill="white"/>
<path d="M291.141 214.546C290.87 214.546 290.596 214.466 290.358 214.297C289.747 213.865 289.601 213.017 290.034 212.406C294.345 206.308 302.412 201.153 311.613 198.617C312.335 198.415 313.083 198.842 313.283 199.565C313.482 200.287 313.057 201.034 312.335 201.234C303.848 203.573 296.152 208.455 292.25 213.973C291.985 214.347 291.566 214.546 291.141 214.546Z" fill="white"/>
<path d="M352.036 217.369C351.686 217.369 351.337 217.235 351.071 216.967C347.138 212.991 342.897 209.956 338.465 207.943C337.783 207.633 337.481 206.829 337.791 206.146C338.101 205.464 338.905 205.161 339.588 205.472C344.321 207.621 348.834 210.847 353.001 215.057C353.528 215.59 353.524 216.449 352.991 216.976C352.726 217.238 352.381 217.369 352.036 217.369Z" fill="white"/>
<path d="M292.423 225.524C292.309 225.524 292.193 225.509 292.078 225.479C291.352 225.289 290.919 224.547 291.109 223.823C293.627 214.215 304.098 203.728 319.237 202.275C325.035 201.718 330.562 202.28 335.665 203.944C336.377 204.177 336.766 204.943 336.534 205.656C336.301 206.369 335.534 206.757 334.823 206.525C330.01 204.954 324.997 204.449 319.497 204.976C305.596 206.312 296.015 215.813 293.735 224.51C293.575 225.12 293.025 225.524 292.423 225.524Z" fill="white"/>
<path d="M344.894 239.148C344.162 239.148 343.558 238.566 343.538 237.829C343.294 229.191 340.725 223.014 335.904 219.469C330.492 215.49 323.111 215.617 318.434 216.933C314.758 217.969 311.872 219.364 309.858 221.079C309.287 221.564 308.43 221.496 307.944 220.926C307.458 220.355 307.527 219.498 308.098 219.012C310.446 217.014 313.586 215.479 317.698 214.32C322.965 212.836 331.313 212.723 337.512 217.282C343.042 221.348 345.982 228.235 346.251 237.753C346.272 238.502 345.682 239.127 344.932 239.147C344.92 239.148 344.906 239.148 344.894 239.148Z" fill="white"/>
<path d="M306.074 247.247C306.003 247.247 305.931 247.241 305.859 247.23C305.118 247.112 304.614 246.416 304.732 245.676C305.051 243.677 304.583 241.043 304.088 238.255C303.206 233.29 302.206 227.663 304.971 222.757C305.339 222.104 306.165 221.873 306.82 222.241C307.473 222.609 307.703 223.437 307.336 224.09C305.049 228.147 305.92 233.044 306.761 237.781C307.297 240.801 307.804 243.652 307.413 246.103C307.306 246.771 306.729 247.247 306.074 247.247Z" fill="white"/>
<path d="M339 246.297C338.988 246.297 338.976 246.297 338.963 246.296C338.214 246.276 337.623 245.653 337.643 244.903C337.813 238.556 337.154 233.391 335.685 229.552C335.417 228.852 335.767 228.068 336.467 227.799C337.168 227.532 337.952 227.882 338.22 228.582C339.817 232.756 340.536 238.272 340.356 244.976C340.337 245.713 339.733 246.297 339 246.297Z" fill="white"/>
<path d="M312.695 250.868C312.653 250.868 312.611 250.867 312.568 250.863C311.822 250.794 311.273 250.133 311.342 249.387C311.719 245.284 311.141 241.26 310.631 237.711C309.484 229.73 308.4 222.192 319.822 219.278C323.627 218.309 330.73 217.599 335.56 223.76C336.022 224.349 335.919 225.203 335.329 225.665C334.74 226.128 333.886 226.025 333.423 225.434C329.739 220.735 324.359 220.922 320.493 221.909C311.434 224.219 312.143 229.152 313.318 237.324C313.849 241.023 314.452 245.214 314.044 249.636C313.98 250.34 313.388 250.868 312.695 250.868Z" fill="white"/>
<path d="M332.341 249.842C332.305 249.842 332.268 249.841 332.23 249.838C331.483 249.778 330.926 249.123 330.987 248.376C332.084 234.821 329.591 229.803 327.306 227.98C325.449 226.499 323.32 226.858 322.216 227.205C318.337 228.425 318.676 231.546 319.74 237.928C319.928 239.05 320.121 240.21 320.286 241.417C320.388 242.16 319.869 242.845 319.127 242.946C318.384 243.045 317.699 242.529 317.597 241.787C317.437 240.618 317.247 239.478 317.063 238.374C316.053 232.318 315.098 226.597 321.402 224.616C323.02 224.108 326.161 223.593 328.999 225.858C333.071 229.108 334.651 236.758 333.693 248.596C333.635 249.304 333.041 249.842 332.341 249.842Z" fill="white"/>
<path d="M319.065 252.082C318.994 252.082 318.922 252.077 318.85 252.065C318.11 251.948 317.605 251.253 317.723 250.512C317.974 248.924 318.049 247.236 317.951 245.354C317.911 244.605 318.486 243.967 319.235 243.927C319.993 243.88 320.621 244.463 320.661 245.211C320.77 247.287 320.686 249.16 320.403 250.938C320.297 251.606 319.72 252.082 319.065 252.082Z" fill="white"/>
<path d="M349.954 230.425C349.301 230.425 348.727 229.953 348.617 229.288C345.774 212.033 329.727 210.311 324.877 210.194C324.128 210.176 323.535 209.554 323.553 208.804C323.57 208.055 324.191 207.439 324.943 207.481C330.32 207.61 348.113 209.533 351.296 228.847C351.418 229.587 350.916 230.285 350.177 230.407C350.101 230.419 350.027 230.425 349.954 230.425Z" fill="white"/>
<path d="M298.6 240.22C297.985 240.22 297.428 239.799 297.28 239.175C297.167 238.692 294.569 227.24 300.965 218.075C305.012 212.276 311.702 208.772 320.85 207.661C321.599 207.571 322.271 208.099 322.361 208.844C322.452 209.588 321.921 210.265 321.178 210.355C312.839 211.369 306.792 214.482 303.203 219.611C297.498 227.766 299.898 238.447 299.923 238.554C300.093 239.284 299.64 240.014 298.911 240.184C298.807 240.209 298.703 240.22 298.6 240.22Z" fill="white"/>
<path d="M325.787 252.361C325.765 252.361 325.742 252.36 325.719 252.359C324.97 252.321 324.394 251.684 324.431 250.936C324.884 241.894 322.594 231.076 322.57 230.968C322.413 230.235 322.88 229.514 323.613 229.357C324.343 229.199 325.068 229.666 325.225 230.4C325.322 230.856 327.612 241.677 327.142 251.071C327.105 251.797 326.506 252.361 325.787 252.361Z" fill="white"/>
<path d="M390.039 188.786C391.805 181.306 387.174 173.812 379.695 172.046C372.215 170.279 364.721 174.911 362.955 182.39C361.188 189.869 365.82 197.364 373.299 199.13C380.778 200.896 388.273 196.265 390.039 188.786Z" fill="#1F4168"/>
<path d="M374.262 190.869L369.563 186.154C369.272 185.861 369.272 185.387 369.564 185.095L371.065 183.594C371.358 183.3 371.834 183.301 372.127 183.596L374.791 186.277L380.853 180.25C381.146 179.959 381.619 179.959 381.911 180.252L383.413 181.754C383.706 182.047 383.705 182.523 383.412 182.815L375.323 190.871C375.028 191.163 374.554 191.162 374.262 190.869Z" fill="white"/>
<path d="M587.533 262.243V480.574C587.533 490.46 579.517 498.475 569.632 498.475H448.055C438.169 498.475 430.154 490.459 430.154 480.574V262.243C430.154 252.358 438.169 244.343 448.055 244.343H569.632C579.518 244.343 587.533 252.358 587.533 262.243Z" fill="white"/>
<path d="M569.632 246.057C578.557 246.057 585.818 253.318 585.818 262.243V480.574C585.818 489.499 578.557 496.76 569.632 496.76H448.055C439.129 496.76 431.868 489.499 431.868 480.574V262.243C431.868 253.318 439.129 246.057 448.055 246.057H569.632ZM569.632 244.343H448.055C438.169 244.343 430.154 252.358 430.154 262.243V480.574C430.154 490.46 438.169 498.475 448.055 498.475H569.632C579.517 498.475 587.533 490.459 587.533 480.574V262.243C587.533 252.358 579.518 244.343 569.632 244.343Z" fill="#00B3F0"/>
<path d="M587.533 262.243V269.669H430.154V262.243C430.154 252.358 438.169 244.343 448.055 244.343H569.632C579.518 244.343 587.533 252.358 587.533 262.243Z" fill="#00B3F0"/>
<path d="M587.533 473.148V480.574C587.533 490.459 579.517 498.474 569.632 498.474H448.055C438.169 498.474 430.154 490.459 430.154 480.574V473.148H587.533Z" fill="#00B3F0"/>
<path d="M525.419 330.623V316.236C525.419 306.964 517.872 299.416 508.603 299.416C499.321 299.416 491.774 306.964 491.774 316.236V330.623H478C475.546 330.623 473.556 332.613 473.556 335.068V396.263C473.556 398.717 475.546 400.707 478 400.707H539.192C541.647 400.707 543.636 398.717 543.636 396.263V335.068C543.636 332.613 541.647 330.623 539.192 330.623L525.419 330.623ZM514.438 364.821C512.572 366.222 511.365 368.327 511.365 370.66V371.053C511.365 372.692 511.963 374.248 512.981 375.54C513.708 376.472 514.141 377.632 514.141 378.914C514.141 382.37 510.959 385.096 507.357 384.32C505.408 383.887 503.769 382.357 503.266 380.43C502.778 378.576 503.207 376.832 504.211 375.527C505.157 374.294 505.517 372.705 505.517 371.148V370.432C505.517 368.125 504.307 366.066 502.513 364.632C499.823 362.478 498.303 358.949 499.07 355.099C499.8 351.461 502.668 348.461 506.28 347.634C512.657 346.164 518.328 350.959 518.328 357.082C518.328 360.264 516.795 363.053 514.438 364.821ZM522.98 330.623H494.212V316.236C494.212 308.292 500.659 301.858 508.603 301.858C516.544 301.858 522.98 308.292 522.98 316.236V330.623Z" fill="#00B3F0"/>
<path d="M518.328 357.082C518.328 360.264 516.794 363.053 514.438 364.821C512.571 366.222 511.365 368.327 511.365 370.66V371.053C511.365 372.692 511.963 374.248 512.981 375.54C513.708 376.472 514.141 377.632 514.141 378.914C514.141 382.37 510.959 385.096 507.357 384.32C505.408 383.887 503.769 382.357 503.266 380.43C502.777 378.577 503.207 376.832 504.211 375.527C505.157 374.294 505.517 372.705 505.517 371.149V370.432C505.517 368.125 504.307 366.066 502.513 364.632C499.823 362.478 498.303 358.949 499.069 355.099C499.8 351.461 502.668 348.461 506.28 347.634C512.657 346.164 518.328 350.959 518.328 357.082Z" fill="white"/>
<path d="M535.981 429.303H481.212C476.984 429.303 473.556 425.876 473.556 421.648C473.556 417.42 476.984 413.993 481.212 413.993H535.981C540.209 413.993 543.636 417.42 543.636 421.648C543.636 425.876 540.209 429.303 535.981 429.303Z" fill="#F0F2F5"/>
<path d="M535.981 450.139H481.212C476.984 450.139 473.556 446.711 473.556 442.483C473.556 438.255 476.984 434.828 481.212 434.828H535.981C540.209 434.828 543.636 438.255 543.636 442.483C543.636 446.711 540.209 450.139 535.981 450.139Z" fill="#F0F2F5"/>
<path d="M489.023 423.424C490.003 422.443 490.003 420.854 489.023 419.873C488.042 418.893 486.452 418.893 485.472 419.873C484.491 420.854 484.491 422.443 485.472 423.424C486.452 424.404 488.042 424.404 489.023 423.424Z" fill="#1F4168"/>
<path d="M499.434 423.424C500.415 422.444 500.415 420.854 499.434 419.873C498.454 418.893 496.864 418.893 495.884 419.873C494.903 420.854 494.903 422.444 495.884 423.424C496.864 424.405 498.454 424.405 499.434 423.424Z" fill="#1F4168"/>
<path d="M509.847 423.424C510.827 422.444 510.827 420.854 509.847 419.873C508.866 418.893 507.276 418.893 506.296 419.873C505.315 420.854 505.315 422.444 506.296 423.424C507.276 424.405 508.866 424.405 509.847 423.424Z" fill="#1F4168"/>
<path d="M520.938 422.271C521.256 420.921 520.421 419.569 519.071 419.25C517.722 418.932 516.369 419.767 516.051 421.117C515.732 422.466 516.568 423.819 517.917 424.137C519.267 424.456 520.619 423.62 520.938 422.271Z" fill="#1F4168"/>
<path d="M531.35 422.271C531.669 420.922 530.833 419.57 529.484 419.251C528.134 418.932 526.782 419.768 526.463 421.117C526.145 422.467 526.98 423.819 528.33 424.138C529.679 424.456 531.031 423.621 531.35 422.271Z" fill="#1F4168"/>
<path d="M543.636 345.071C549.589 345.071 554.414 340.245 554.414 334.293C554.414 328.341 549.589 323.515 543.636 323.515C537.684 323.515 532.859 328.341 532.859 334.293C532.859 340.245 537.684 345.071 543.636 345.071Z" fill="#1F4168"/>
<path d="M541.912 338.405L538.272 334.752C538.046 334.525 538.047 334.159 538.273 333.932L539.435 332.77C539.663 332.542 540.031 332.543 540.257 332.771L542.321 334.848L547.016 330.18C547.243 329.954 547.61 329.955 547.836 330.181L548.999 331.344C549.226 331.571 549.226 331.94 548.998 332.166L542.732 338.406C542.506 338.632 542.138 338.632 541.912 338.405Z" fill="white"/>
<path d="M531.412 444.368H484.742C483.701 444.368 482.857 443.524 482.857 442.483C482.857 441.441 483.701 440.597 484.742 440.597H531.412C532.453 440.597 533.298 441.441 533.298 442.483C533.298 443.524 532.453 444.368 531.412 444.368Z" fill="white"/>
<path d="M570.908 538.212H180.778C180.494 538.212 180.264 537.982 180.264 537.698C180.264 537.414 180.494 537.184 180.778 537.184H570.908C571.192 537.184 571.423 537.414 571.423 537.698C571.423 537.982 571.192 538.212 570.908 538.212Z" fill="#1F4168"/>
<path d="M201.588 551.477L194.734 552.51L188.394 552.774C184.289 552.945 180.81 555.847 179.905 559.855C178.925 564.193 181.229 568.604 185.349 570.279L198.49 575.62C200.102 576.275 201.8 576.693 203.532 576.859L220.805 578.356L209.969 556.295L201.588 551.477Z" fill="#1F4168"/>
<path d="M380.934 555.898C380.934 555.898 380.509 582.499 353.088 589.132C324.27 596.103 305.352 576.731 305.352 576.731C305.352 576.731 292.856 578.895 272.22 570.347L214.331 570.548C214.331 570.548 178.492 525.056 193.711 506.62C206.558 491.057 265.139 507.817 265.139 507.817C265.139 507.817 311.066 506.415 342.094 517.459C373.122 528.502 380.934 555.898 380.934 555.898Z" fill="#00B3F0"/>
<g opacity="0.4">
<path d="M239.697 554.613C239.697 554.613 237.945 558.232 240.299 565.075L238.597 561.22C237.995 559.858 238.006 558.303 238.626 556.95L239.697 554.613Z" fill="#A65B3C"/>
</g>
<path d="M391.481 443.188L385.571 484.427L387.681 521.405L389.377 532.15C389.866 535.261 389.561 538.438 388.549 541.424C386.985 546.042 380.214 561.308 380.214 561.308L365.932 547.336C362.385 543.867 358.379 540.901 354.025 538.521L308.947 513.885C308.947 513.885 314.77 501.185 310.355 476.199C305.94 451.213 311.516 433.604 311.516 433.604C310.844 432.69 310.257 431.712 309.74 430.74C307.797 427.05 306.98 423.433 306.98 423.433L314.874 409.808C321.773 399.81 334.806 399.586 334.806 399.586L368.646 399.028C399.984 406.583 391.481 443.188 391.481 443.188Z" fill="#F0F2F5"/>
<path d="M310.355 476.2L309.864 473.56L309.618 472.24C309.532 471.8 309.49 471.354 309.424 470.911L309.073 468.248C308.96 467.359 308.91 466.464 308.825 465.573C308.638 463.791 308.604 461.998 308.515 460.21C308.491 459.315 308.5 458.419 308.49 457.523L308.485 456.179L308.526 454.836C308.565 453.942 308.57 453.045 308.639 452.152L308.823 449.472L309.088 446.798C309.177 445.907 309.309 445.021 309.417 444.132C309.657 442.358 309.951 440.59 310.283 438.831C310.642 437.076 311.028 435.327 311.517 433.604C311.055 435.334 310.697 437.088 310.366 438.846C310.046 440.607 309.76 442.373 309.53 444.147C309.427 445.036 309.3 445.922 309.215 446.812L308.966 449.483L308.797 452.161C308.732 453.053 308.733 453.948 308.697 454.842L308.649 456.183L308.647 457.524C308.652 458.418 308.638 459.312 308.658 460.207C308.737 461.993 308.761 463.784 308.938 465.564C309.018 466.455 309.064 467.349 309.172 468.237L309.506 470.9C309.566 471.343 309.601 471.79 309.68 472.231L309.905 473.554L310.355 476.2Z" fill="#B4C0CD"/>
<path d="M368.646 399.029L370.32 399.496C370.875 399.659 371.443 399.786 371.981 400.004L373.614 400.599L374.022 400.748C374.157 400.801 374.286 400.866 374.418 400.925L375.208 401.288L375.998 401.65C376.263 401.768 376.526 401.889 376.774 402.04L378.289 402.894C378.414 402.967 378.543 403.033 378.665 403.111L379.024 403.355L379.742 403.845L380.461 404.335C380.703 404.494 380.915 404.695 381.144 404.873C382.993 406.276 384.587 407.991 385.99 409.831C386.708 410.743 387.308 411.738 387.913 412.727L388.731 414.261C388.994 414.778 389.214 415.316 389.457 415.842C391.281 420.111 392.211 424.727 392.482 429.352C392.619 431.668 392.605 433.991 392.445 436.305C392.283 438.618 392.014 440.926 391.534 443.2L391.534 443.195L385.647 484.437L385.648 484.422L387.722 521.402L387.721 521.398L389.342 531.733C389.952 535.174 389.582 538.77 388.352 542.035C387.138 545.306 385.759 548.51 384.396 551.719C383.022 554.924 381.627 558.12 380.214 561.307C381.621 558.117 383.009 554.919 384.377 551.711C385.734 548.499 387.107 545.292 388.314 542.021C389.535 538.759 389.897 535.174 389.282 531.742L387.641 521.411L387.64 521.409V521.407L385.494 484.43L385.494 484.423L385.495 484.415L391.428 443.18L391.428 443.178L391.429 443.175C391.912 440.914 392.185 438.607 392.351 436.298C392.515 433.989 392.534 431.669 392.401 429.357C392.14 424.738 391.221 420.129 389.408 415.863C389.166 415.337 388.947 414.8 388.687 414.284L387.872 412.75C387.27 411.762 386.674 410.767 385.958 409.855C384.561 408.015 382.972 406.298 381.127 404.893C380.899 404.716 380.689 404.514 380.446 404.355L379.73 403.864L379.013 403.373L378.655 403.128C378.533 403.05 378.404 402.983 378.279 402.91L376.767 402.054C376.519 401.903 376.256 401.781 375.992 401.663L375.203 401.299L374.414 400.935C374.282 400.876 374.153 400.81 374.018 400.757L373.61 400.607L371.979 400.009C371.441 399.79 370.874 399.662 370.319 399.499L368.646 399.029Z" fill="#B4C0CD"/>
<path d="M309.52 430.315C308.966 429.223 308.471 428.099 308.041 426.952C307.611 425.803 307.226 424.638 306.936 423.444L306.932 423.427L306.941 423.411L314.803 409.767L314.805 409.764L314.807 409.762C315.433 408.87 316.116 408.018 316.867 407.228C317.625 406.446 318.436 405.715 319.295 405.046C321.023 403.72 322.931 402.636 324.938 401.8C326.947 400.967 329.047 400.356 331.186 399.97C332.255 399.779 333.335 399.642 334.42 399.582C335.507 399.549 336.591 399.554 337.676 399.539C336.592 399.569 335.505 399.579 334.423 399.626C333.341 399.7 332.266 399.855 331.201 400.055C329.07 400.45 326.98 401.069 324.984 401.908C322.988 402.75 321.096 403.837 319.385 405.163C318.535 405.832 317.734 406.56 316.985 407.34C316.245 408.13 315.569 408.975 314.941 409.855L314.945 409.849L307.019 423.456L307.024 423.424C307.312 424.61 307.671 425.783 308.087 426.934C308.501 428.086 308.98 429.215 309.52 430.315Z" fill="#B4C0CD"/>
<path d="M214.331 570.548L228.405 587.523L244.745 578.553C244.745 578.553 242.813 570.46 240.767 566.35C240.767 566.35 227.81 555.954 214.331 570.548Z" fill="#FFC89F"/>
<path d="M225.541 582.919V589.825C225.541 593.208 227.758 596.19 230.993 597.174L234.401 598.205C237.129 605.31 245.005 607.71 250.657 608.505C250.964 608.549 251.269 608.579 251.576 608.599C251.58 608.599 251.58 608.599 251.58 608.599C254.882 608.839 258.172 607.862 260.825 605.844L266.954 601.186L270.888 598.952C273.17 597.657 274.485 595.145 274.245 592.529L272.22 570.347H259.632C257.448 569.272 255.359 568.674 253.395 568.403C248.849 567.785 244.995 568.971 242.321 570.276C239.762 571.523 238.274 572.882 238.274 572.882L230.462 575.816C227.502 576.929 225.541 579.758 225.541 582.919Z" fill="#1F4168"/>
<g opacity="0.4">
<path d="M270.888 598.952L266.953 601.186L260.826 605.845C257.658 606.572 254.337 605.661 251.983 603.42L244.223 596.027C239.616 591.639 238.83 584.574 242.361 579.28L245.78 574.153C247.595 571.432 250.278 569.406 253.392 568.406L253.396 568.404C255.359 568.672 257.449 569.273 259.633 570.346H272.221L274.246 592.529C274.485 595.144 273.171 597.657 270.888 598.952Z" fill="#1F4168"/>
</g>
<path d="M239.539 597.792L248.858 606.669C249.676 607.45 250.596 608.096 251.576 608.6C251.58 608.6 251.58 608.6 251.58 608.6C254.882 608.84 258.171 607.862 260.825 605.844C260.105 606.01 259.378 606.091 258.658 606.091C256.201 606.091 253.804 605.155 251.982 603.421L244.224 596.028C239.617 591.64 238.829 584.575 242.362 579.281L245.779 574.153C247.595 571.432 250.278 569.407 253.392 568.406L253.395 568.403C248.849 567.785 244.995 568.971 242.321 570.276C242 570.675 241.696 571.09 241.408 571.52L237.301 577.679C233.062 584.037 234.005 592.522 239.539 597.792Z" fill="#F0F2F5"/>
<path d="M315.298 385.133C315.298 385.133 309.541 391.083 312.654 395.943C312.654 395.943 312.517 394.442 313.072 393.762C313.072 393.762 313.152 397.207 316.036 398.28C316.036 398.28 314.248 394.632 317.313 392.143C317.313 392.143 318.904 394.297 321.357 393.228C321.357 393.228 321.036 394.097 319.483 394.468C319.483 394.468 322.645 395.539 325.506 393.1C325.506 393.1 329.237 395.03 333.635 391.978L365.642 386.435C366.824 378.074 370.03 337.598 341.615 329.941C341.615 329.941 305.686 348.549 310.007 364.838C314.328 381.126 315.298 385.133 315.298 385.133Z" fill="#1B1A2E"/>
<path d="M362.228 392.809C360.637 389.714 358.904 379.29 358.904 379.29L331.692 381.61L331.786 382.155L336.799 394.44L337.677 399.539C336.599 401.79 336.352 402.481 335.632 404.359C327.59 425.289 340.533 423.602 349.146 413.457C358.958 401.902 368.646 399.027 368.646 399.027C368.646 399.027 364.621 397.463 362.228 392.809Z" fill="#FFC89F"/>
<path d="M344.475 394.572C355.408 392.679 362.735 382.282 360.842 371.349L356.654 347.168C354.761 336.235 344.364 328.907 333.432 330.801C322.499 332.694 315.172 343.091 317.065 354.023L321.252 378.205C323.146 389.138 333.543 396.465 344.475 394.572Z" fill="#FFC89F"/>
<path d="M344.412 394.202C341.777 396.202 337.203 396.786 337.203 396.786L336.799 394.44C339.401 394.975 342.435 395.047 344.412 394.202Z" fill="#FF9A6C"/>
<path d="M322.794 365.238C322.964 366.222 323.9 366.882 324.884 366.712C325.868 366.541 326.528 365.605 326.358 364.621C326.187 363.637 325.251 362.978 324.267 363.148C323.283 363.318 322.623 364.254 322.794 365.238Z" fill="#1B1A2E"/>
<path d="M321.156 362.305C321.548 361.754 322.07 361.295 322.653 360.939C323.236 360.583 323.89 360.33 324.572 360.231C324.74 360.19 324.914 360.198 325.084 360.18L325.341 360.163C325.427 360.16 325.513 360.169 325.598 360.173C325.769 360.185 325.941 360.193 326.111 360.208C326.279 360.238 326.447 360.271 326.614 360.305L326.865 360.356L327.108 360.436L327.592 360.595C327.904 360.727 328.207 360.881 328.508 361.031C328.186 360.927 327.876 360.795 327.556 360.699L327.071 360.573L326.829 360.51L326.582 360.475C326.417 360.453 326.253 360.43 326.089 360.404C325.924 360.394 325.758 360.392 325.593 360.386C325.511 360.386 325.428 360.376 325.346 360.38L325.099 360.4C324.935 360.419 324.768 360.412 324.608 360.453C323.952 360.542 323.325 360.779 322.74 361.088C322.592 361.164 322.454 361.257 322.31 361.341C322.173 361.435 322.036 361.531 321.904 361.632C321.635 361.832 321.387 362.058 321.156 362.305Z" fill="#1B1A2E"/>
<path d="M341.494 362C341.665 362.984 342.601 363.643 343.585 363.473C344.569 363.303 345.228 362.367 345.058 361.383C344.888 360.399 343.952 359.739 342.968 359.909C341.984 360.08 341.324 361.016 341.494 362Z" fill="#1B1A2E"/>
<path d="M339.856 359.066C340.249 358.515 340.771 358.057 341.353 357.701C341.936 357.345 342.591 357.092 343.272 356.993C343.44 356.952 343.614 356.96 343.784 356.942L344.041 356.925C344.127 356.922 344.213 356.931 344.298 356.935C344.469 356.947 344.641 356.955 344.811 356.97C344.979 357 345.147 357.033 345.314 357.068L345.565 357.119L345.808 357.198L346.292 357.357C346.604 357.489 346.907 357.643 347.208 357.793C346.886 357.689 346.577 357.557 346.256 357.461L345.771 357.335L345.529 357.272L345.282 357.237C345.117 357.215 344.953 357.192 344.79 357.166C344.624 357.156 344.458 357.154 344.293 357.148C344.211 357.148 344.128 357.138 344.046 357.142L343.799 357.161C343.635 357.18 343.468 357.173 343.307 357.215C342.652 357.304 342.025 357.541 341.44 357.85C341.291 357.925 341.154 358.019 341.01 358.103C340.873 358.197 340.736 358.293 340.603 358.394C340.335 358.594 340.087 358.82 339.856 359.066Z" fill="#1B1A2E"/>
<path d="M333.587 369.24C333.658 370.02 333.704 370.801 333.747 371.582C333.792 372.363 333.82 373.145 333.847 373.927C333.857 374.322 333.858 374.7 333.955 375.069C334.038 375.439 334.19 375.793 334.394 376.112C334.601 376.427 334.88 376.705 335.227 376.854C335.585 377.01 335.949 377.157 336.306 377.318C335.931 377.204 335.561 377.078 335.188 376.957C334.803 376.818 334.489 376.534 334.252 376.211C334.012 375.885 333.85 375.509 333.748 375.12C333.639 374.73 333.636 374.318 333.622 373.933C333.6 373.152 333.579 372.37 333.575 371.588C333.568 370.805 333.565 370.023 333.587 369.24Z" fill="#1B1A2E"/>
<path d="M335.314 381.196C335.793 381.9 336.493 382.35 337.32 382.575C337.525 382.637 337.745 382.665 337.962 382.69C338.183 382.698 338.408 382.706 338.633 382.673C339.088 382.628 339.546 382.493 339.955 382.268C340.782 381.826 341.387 381.089 341.686 380.308C341.838 379.915 341.927 379.51 341.952 379.105C341.965 378.695 341.936 378.282 341.776 377.881C341.425 378.209 341.121 378.503 340.835 378.773C340.827 378.781 340.815 378.794 340.807 378.802C340.602 378.998 340.406 379.178 340.209 379.346C339.742 379.751 339.321 380.058 338.896 380.283C338.683 380.402 338.462 380.496 338.22 380.582C338.102 380.631 337.971 380.66 337.844 380.709C337.705 380.733 337.569 380.786 337.422 380.811C337.345 380.831 337.263 380.848 337.177 380.864C337.046 380.893 336.907 380.917 336.767 380.942C336.333 381.016 335.855 381.086 335.314 381.196Z" fill="#E43F5A"/>
<path d="M337.177 380.865C337.242 380.893 337.312 380.922 337.385 380.946C337.999 381.164 338.781 381.106 339.419 380.758C340.066 380.414 340.52 379.829 340.712 379.224C340.753 379.084 340.786 378.945 340.806 378.802C340.602 378.999 340.405 379.179 340.209 379.347C339.742 379.752 339.321 380.059 338.895 380.284C338.682 380.402 338.462 380.497 338.22 380.582C338.101 380.631 337.97 380.66 337.843 380.709C337.704 380.734 337.569 380.787 337.422 380.811C337.344 380.832 337.263 380.848 337.177 380.865Z" fill="white"/>
<path d="M320.296 357.338C320.318 356.921 320.467 356.546 320.656 356.202C320.754 356.032 320.866 355.869 320.988 355.714C321.05 355.638 321.117 355.566 321.185 355.494C321.254 355.423 321.318 355.344 321.396 355.285C321.983 354.752 322.748 354.383 323.554 354.266C323.753 354.219 323.957 354.228 324.159 354.216L324.462 354.213C324.563 354.218 324.662 354.233 324.762 354.247C324.96 354.275 325.157 354.308 325.35 354.352C325.539 354.412 325.723 354.483 325.904 354.556C325.995 354.59 326.084 354.631 326.172 354.673C326.256 354.722 326.34 354.77 326.421 354.825C326.585 354.929 326.743 355.043 326.894 355.159C327.044 355.28 327.175 355.431 327.303 355.579C327.43 355.728 327.546 355.89 327.648 356.065C327.231 356.159 326.876 356.173 326.534 356.203C326.362 356.225 326.197 356.243 326.038 356.252C325.958 356.259 325.88 356.259 325.803 356.262C325.725 356.272 325.648 356.287 325.572 356.292C325.422 356.308 325.275 356.323 325.131 356.327C324.988 356.347 324.848 356.37 324.711 356.38C324.642 356.389 324.573 356.386 324.505 356.398C324.438 356.411 324.371 356.42 324.304 356.432L324.104 356.456C324.036 356.458 323.971 356.469 323.906 356.486C323.375 356.557 322.858 356.678 322.277 356.811C321.689 356.947 321.081 357.125 320.296 357.338Z" fill="#1B1A2E"/>
<path d="M338.996 354.1C339.018 353.682 339.168 353.308 339.356 352.963C339.455 352.793 339.566 352.631 339.688 352.476C339.75 352.399 339.818 352.328 339.885 352.256C339.954 352.185 340.018 352.105 340.096 352.046C340.683 351.514 341.448 351.144 342.254 351.027C342.453 350.981 342.657 350.989 342.859 350.977L343.163 350.975C343.263 350.979 343.362 350.994 343.462 351.008C343.66 351.037 343.857 351.069 344.05 351.114C344.239 351.173 344.424 351.245 344.605 351.317C344.695 351.352 344.785 351.393 344.872 351.434C344.956 351.484 345.041 351.531 345.122 351.587C345.285 351.691 345.443 351.804 345.594 351.921C345.744 352.042 345.875 352.193 346.003 352.341C346.13 352.489 346.246 352.652 346.349 352.826C345.931 352.921 345.577 352.935 345.234 352.965C345.063 352.986 344.897 353.004 344.738 353.013C344.658 353.021 344.58 353.021 344.503 353.023C344.425 353.033 344.348 353.048 344.273 353.053C344.122 353.069 343.975 353.084 343.831 353.088C343.688 353.108 343.549 353.131 343.41 353.141C343.341 353.15 343.273 353.147 343.205 353.159C343.138 353.172 343.071 353.182 343.004 353.193L342.804 353.217C342.736 353.219 342.67 353.231 342.606 353.247C342.075 353.318 341.558 353.439 340.976 353.572C340.39 353.709 339.782 353.886 338.996 354.1Z" fill="#1B1A2E"/>
<path d="M341.119 332.499C341.119 332.499 335.739 331.529 329.34 338.905C322.94 346.282 319.635 357.888 312.199 363.777C312.199 363.777 313.007 383.309 322.69 387.165C322.69 387.165 316.089 389.614 312.699 380.813C312.699 380.813 301.165 373.807 313.155 340.008C314.927 332.432 333.128 312.868 357.833 325.772C357.833 325.772 369.526 329.695 376.128 349.369C376.128 349.369 390.185 375.517 368.864 385.188C368.864 385.188 363.501 392.684 357.281 389.029C357.281 389.029 360.882 387.163 361.92 385.207C361.92 385.207 355.186 389.927 350.543 387.488C350.543 387.488 359.103 384.584 360.829 379.931C360.829 379.931 357.556 384.63 353.028 381.06C353.028 381.06 368.831 377.27 362.529 356.043C362.529 356.043 352.013 363.457 348.219 350.251C344.547 337.472 341.119 332.499 341.119 332.499Z" fill="#1B1A2E"/>
<path d="M312.687 380.844C310.927 380.205 309.425 378.946 308.281 377.451C307.135 375.945 306.394 374.15 306.021 372.31C305.687 370.455 305.678 368.574 305.84 366.727C305.993 364.877 306.278 363.042 306.671 361.226L306.99 359.869C307.101 359.419 307.221 358.973 307.341 358.527C307.58 357.634 307.818 356.74 308.071 355.851C308.567 354.071 309.06 352.289 309.593 350.519C310.132 348.75 310.682 346.985 311.266 345.23C311.856 343.476 312.445 341.723 313.123 339.997L313.187 340.019C312.265 343.601 311.309 347.172 310.283 350.722C309.247 354.267 308.126 357.8 307.029 361.316C306.526 363.085 306.159 364.902 306.058 366.742C306.029 367.201 306.038 367.662 306.031 368.12L306.068 368.808C306.081 369.037 306.088 369.266 306.118 369.493C306.198 370.406 306.362 371.306 306.569 372.19C306.791 373.071 307.064 373.934 307.41 374.769C307.758 375.603 308.191 376.401 308.704 377.145C309.22 377.888 309.819 378.574 310.485 379.194C310.823 379.497 311.17 379.795 311.541 380.063C311.913 380.328 312.302 380.575 312.711 380.781L312.687 380.844Z" fill="#1B1A2E"/>
<path d="M341.148 332.482C342.064 333.87 342.805 335.361 343.484 336.874C343.816 337.634 344.141 338.398 344.432 339.175C344.738 339.946 345.005 340.732 345.266 341.519C345.512 342.311 345.744 343.108 345.951 343.91L346.268 345.111C346.367 345.513 346.458 345.918 346.564 346.317L347.803 351.124C347.912 351.524 348.01 351.923 348.129 352.314C348.248 352.706 348.378 353.094 348.522 353.475C348.81 354.235 349.143 354.976 349.569 355.651C349.988 356.329 350.501 356.943 351.122 357.407C351.741 357.871 352.46 358.18 353.221 358.325C353.983 358.468 354.781 358.468 355.572 358.361C356.366 358.265 357.154 358.067 357.933 357.833C359.493 357.357 361.007 356.696 362.514 356.014L362.546 356.073C361.147 356.961 359.678 357.753 358.11 358.351C357.325 358.647 356.512 358.883 355.669 359.025C354.828 359.157 353.951 359.197 353.086 359.034C352.656 358.95 352.231 358.821 351.827 358.64C351.426 358.455 351.046 358.222 350.704 357.947C350.013 357.399 349.472 356.703 349.045 355.964C348.624 355.22 348.31 354.43 348.068 353.627C347.829 352.823 347.672 351.997 347.51 351.19C347.191 349.571 346.805 347.964 346.32 346.386C346.202 345.99 346.07 345.599 345.946 345.206L345.542 344.036C345.284 343.253 344.976 342.487 344.713 341.706C343.615 338.603 342.485 335.511 341.091 332.516L341.148 332.482Z" fill="#1B1A2E"/>
<path d="M317.688 357.622C317.376 358.245 317.013 358.837 316.619 359.408C316.228 359.982 315.798 360.529 315.344 361.055C314.884 361.577 314.399 362.078 313.875 362.536C313.353 362.997 312.798 363.422 312.199 363.777C312.682 363.275 313.162 362.785 313.631 362.285C314.097 361.783 314.558 361.278 315.006 360.76C315.459 360.248 315.897 359.721 316.341 359.197C316.783 358.67 317.223 358.14 317.688 357.622Z" fill="#1F4068"/>
<path d="M341.107 332.46C339.742 332.48 338.41 332.819 337.132 333.25C335.851 333.689 334.628 334.28 333.446 334.943C331.052 336.224 328.898 337.987 327.13 340.063C326.237 341.095 325.388 342.161 324.559 343.245C323.731 344.329 322.932 345.437 322.115 346.534C320.479 348.722 318.803 350.909 316.879 352.866L316.846 352.836C318.553 350.695 320.121 348.464 321.73 346.249C322.537 345.144 323.37 344.055 324.227 342.984C325.081 341.911 325.987 340.875 326.95 339.896C327.188 339.649 327.427 339.403 327.677 339.168L328.048 338.811C328.169 338.689 328.293 338.571 328.421 338.457C328.677 338.229 328.923 337.989 329.18 337.763L329.96 337.093L330.347 336.753L330.75 336.434C331.018 336.219 331.282 335.999 331.554 335.788C332.114 335.389 332.664 334.972 333.258 334.62C334.434 333.9 335.702 333.319 337.026 332.919C338.347 332.526 339.735 332.272 341.112 332.416L341.107 332.46Z" fill="#1F4068"/>
<path d="M353.023 381.039C355.38 380.193 357.508 378.832 359.3 377.129C360.203 376.284 361.029 375.336 361.676 374.268C362.326 373.201 362.792 372.029 363.112 370.828C363.76 368.419 363.864 365.91 363.702 363.435C363.55 360.952 363.073 358.494 362.508 356.051L362.551 356.038C362.751 356.633 362.945 357.231 363.133 357.832C363.301 358.437 363.454 359.048 363.607 359.66C363.741 360.275 363.847 360.898 363.963 361.518L364.08 362.458C364.112 362.773 364.167 363.085 364.18 363.401L364.228 364.349C364.234 364.507 364.247 364.664 364.248 364.823L364.238 365.298L364.215 366.247L364.132 367.194C364.118 367.351 364.107 367.509 364.089 367.666L364.015 368.136C363.959 368.448 363.921 368.762 363.851 369.071C363.78 369.38 363.706 369.687 363.628 369.994C363.554 370.301 363.44 370.598 363.348 370.9C362.946 372.097 362.427 373.249 361.802 374.343C361.178 375.436 360.445 376.48 359.563 377.395C358.678 378.306 357.651 379.076 356.552 379.706C355.448 380.324 354.271 380.825 353.033 381.083L353.023 381.039Z" fill="#1F4068"/>
<path d="M323.503 386.205C322.472 386.727 321.316 387.007 320.145 387.058C319.558 387.084 318.966 387.034 318.386 386.918C317.807 386.798 317.242 386.598 316.712 386.331C315.651 385.792 314.759 384.953 314.107 383.982C313.446 383.013 312.985 381.929 312.699 380.813C313.161 381.868 313.702 382.882 314.391 383.776C314.556 384.004 314.75 384.209 314.933 384.42C315.024 384.527 315.131 384.618 315.229 384.718C315.328 384.817 315.428 384.913 315.538 385C315.954 385.372 316.421 385.681 316.916 385.931C317.901 386.444 319.017 386.687 320.141 386.708C321.267 386.723 322.406 386.552 323.503 386.205Z" fill="#1F4068"/>
<path d="M311.646 357.969C311.737 359.311 311.856 360.65 312.018 361.984C312.171 363.319 312.356 364.649 312.57 365.974C313.005 368.621 313.556 371.251 314.33 373.813C314.712 375.096 315.157 376.358 315.676 377.589C316.197 378.818 316.797 380.015 317.512 381.139C318.229 382.26 319.061 383.316 320.062 384.197C321.051 385.089 322.223 385.785 323.503 386.205C322.192 385.883 320.975 385.217 319.92 384.365C318.864 383.507 317.975 382.458 317.219 381.332C315.704 379.07 314.686 376.525 313.899 373.943C313.126 371.351 312.591 368.697 312.224 366.026C311.859 363.354 311.65 360.661 311.646 357.969Z" fill="#1F4068"/>
<path d="M340.517 331.918C340.066 331.74 339.593 331.647 339.121 331.61C338.65 331.558 338.177 331.598 337.711 331.646C336.778 331.771 335.882 332.096 335.046 332.528C334.614 332.722 334.223 332.992 333.82 333.24L333.668 333.333L333.525 333.439L333.238 333.652L332.663 334.076C332.304 334.392 331.929 334.69 331.569 335.009C331.22 335.339 330.871 335.671 330.505 335.993C330.796 335.606 331.104 335.23 331.412 334.853C331.739 334.494 332.089 334.154 332.435 333.81C332.617 333.647 332.809 333.495 332.998 333.34L333.284 333.108L333.426 332.992L333.579 332.889C333.99 332.62 334.394 332.338 334.843 332.127C335.72 331.684 336.68 331.358 337.675 331.298C338.171 331.277 338.669 331.287 339.153 331.393C339.634 331.493 340.109 331.65 340.517 331.918Z" fill="#1F4068"/>
<path d="M341.474 330.332C342.189 329.252 343.081 328.287 344.072 327.44C345.064 326.594 346.17 325.868 347.369 325.33C348.565 324.794 349.857 324.445 351.168 324.364C352.478 324.261 353.796 324.463 355.023 324.861C354.383 324.763 353.75 324.651 353.108 324.644C352.789 324.619 352.469 324.636 352.151 324.636L351.674 324.667C351.515 324.674 351.357 324.69 351.2 324.713C350.569 324.783 349.946 324.913 349.337 325.087C348.725 325.253 348.13 325.478 347.553 325.74C346.391 326.251 345.308 326.938 344.292 327.711C343.786 328.101 343.296 328.515 342.826 328.951C342.349 329.384 341.902 329.848 341.474 330.332Z" fill="#1F4068"/>
<path d="M361.396 355.143C360.989 354.565 360.61 353.969 360.229 353.374C359.859 352.772 359.493 352.168 359.134 351.559C358.425 350.338 357.742 349.1 357.104 347.839C356.464 346.579 355.887 345.288 355.32 343.994L353.613 340.118C353.047 338.826 352.427 337.558 351.826 336.285C351.22 335.014 350.597 333.753 349.912 332.531C349.568 331.921 349.219 331.316 348.832 330.737C348.446 330.16 348.036 329.596 347.556 329.102C347.077 328.612 346.535 328.173 345.897 327.93C345.578 327.813 345.241 327.742 344.897 327.733C344.552 327.722 344.205 327.775 343.865 327.865L343.851 327.822C344.504 327.551 345.271 327.48 345.974 327.7C346.678 327.911 347.297 328.34 347.816 328.838C348.862 329.842 349.642 331.059 350.331 332.298C350.678 332.918 350.989 333.556 351.295 334.195C351.598 334.835 351.895 335.477 352.171 336.128C352.738 337.423 353.226 338.75 353.76 340.056C354.81 342.675 356.146 345.166 357.459 347.657C358.749 350.161 360.075 352.646 361.434 355.12L361.396 355.143Z" fill="#1F4068"/>
<path d="M354.421 330.806C356.351 332.454 357.968 334.45 359.394 336.55C360.819 338.657 362.022 340.91 363.05 343.238C363.292 343.826 363.519 344.42 363.754 345.011C363.868 345.308 363.995 345.6 364.097 345.901L364.396 346.807C364.588 347.413 364.797 348.014 364.976 348.624L365.454 350.469L365.69 351.392L365.871 352.327L366.223 354.198C366.287 354.509 366.323 354.825 366.359 355.14L366.473 356.085C366.55 356.714 366.622 357.343 366.69 357.972C366.574 357.349 366.462 356.726 366.355 356.102L366.191 355.168C366.138 354.856 366.086 354.545 366.006 354.239L365.583 352.391L365.374 351.468L365.114 350.558L364.598 348.737C364.41 348.135 364.193 347.542 363.992 346.945L363.689 346.049C363.586 345.752 363.458 345.463 363.344 345.169C363.108 344.585 362.879 343.998 362.638 343.416C361.627 341.107 360.454 338.87 359.102 336.742L358.592 335.945L358.05 335.171C357.866 334.915 357.695 334.648 357.501 334.4L356.927 333.648C356.153 332.65 355.33 331.688 354.421 330.806Z" fill="#1F4068"/>
<path d="M340.894 331.261C341.145 331.057 341.489 330.987 341.812 331.037C342.138 331.085 342.438 331.242 342.691 331.442C342.947 331.64 343.167 331.876 343.362 332.128C343.556 332.38 343.734 332.644 343.888 332.92C344.524 334.017 344.903 335.224 345.286 336.394C345.665 337.573 346.022 338.761 346.453 339.924C346.883 341.086 347.38 342.222 347.924 343.334C349.016 345.556 350.197 347.729 351.569 349.776C352.92 351.836 354.462 353.767 356.214 355.526L356.184 355.559C354.237 354.009 352.569 352.108 351.17 350.043C350.469 349.009 349.849 347.925 349.27 346.822C348.687 345.72 348.171 344.586 347.701 343.435C347.227 342.286 346.781 341.128 346.317 339.976C345.851 338.826 345.37 337.68 344.932 336.518C344.713 335.938 344.515 335.345 344.31 334.769C344.099 334.194 343.863 333.628 343.583 333.088C343.302 332.55 342.976 332.029 342.538 331.625C342.318 331.427 342.068 331.259 341.782 331.186C341.501 331.113 341.181 331.143 340.921 331.297L340.894 331.261Z" fill="#1F4068"/>
<path d="M342.452 329.181C341.578 328.123 340.327 327.46 339.031 327.199C337.723 326.951 336.364 327.1 335.087 327.493C333.799 327.868 332.58 328.47 331.41 329.151C330.243 329.839 329.119 330.612 328.014 331.421C329.006 330.479 330.07 329.603 331.226 328.853C331.799 328.469 332.406 328.138 333.022 327.823C333.649 327.53 334.289 327.256 334.959 327.063C335.627 326.87 336.315 326.721 337.016 326.683C337.715 326.645 338.425 326.688 339.107 326.858C339.789 327.024 340.439 327.316 341.016 327.706C341.303 327.903 341.568 328.13 341.812 328.374C342.056 328.618 342.278 328.885 342.452 329.181Z" fill="#1F4068"/>
<path d="M326.944 332.496C325.364 334.344 323.989 336.338 322.73 338.402C322.413 338.916 322.095 339.433 321.803 339.963C321.651 340.226 321.514 340.496 321.368 340.762C321.234 341.034 321.096 341.304 320.97 341.58C320.463 342.683 320.058 343.831 319.734 344.998C319.653 345.29 319.581 345.584 319.505 345.877L319.297 346.76C319.148 347.352 319.019 347.95 318.843 348.536C318.511 349.712 318.121 350.875 317.651 352.006C317.165 353.131 316.617 354.231 315.962 355.269C315.303 356.299 314.576 357.303 313.649 358.111L313.62 358.077C314.429 357.175 315.074 356.142 315.658 355.089C316.24 354.032 316.75 352.938 317.209 351.822C317.429 351.261 317.657 350.702 317.856 350.131C318.072 349.567 318.251 348.99 318.437 348.415C318.536 348.129 318.61 347.835 318.695 347.545L318.949 346.673C319.033 346.38 319.117 346.085 319.207 345.793C319.304 345.503 319.396 345.212 319.497 344.924C319.899 343.77 320.359 342.641 320.838 341.521C321.317 340.401 321.822 339.288 322.407 338.213C323.003 337.145 323.688 336.127 324.436 335.161C325.186 334.196 325.997 333.274 326.913 332.464L326.944 332.496Z" fill="#1F4068"/>
<path d="M350.94 325.168C351.86 325.086 352.799 325.196 353.695 325.451C354.585 325.721 355.454 326.102 356.229 326.623C357.811 327.625 359.143 328.962 360.327 330.384L360.553 330.65L360.765 330.925L361.187 331.478L361.609 332.03L362.004 332.601C362.263 332.985 362.529 333.364 362.781 333.751L363.508 334.932C363.628 335.13 363.751 335.325 363.867 335.525L364.205 336.129L364.874 337.342C365.091 337.749 365.288 338.167 365.496 338.579C365.703 338.991 365.905 339.405 366.103 339.821C365.616 339.037 365.166 338.235 364.682 337.451L363.952 336.281L363.59 335.694C363.467 335.5 363.337 335.311 363.211 335.119L362.452 333.97C362.194 333.591 361.921 333.222 361.656 332.848L361.259 332.288L360.838 331.746L360.417 331.204L360.206 330.933L359.982 330.674C358.821 329.265 357.533 327.947 356.036 326.916C355.847 326.791 355.662 326.658 355.469 326.538L354.874 326.207C354.68 326.087 354.467 326.007 354.261 325.913C354.053 325.82 353.846 325.724 353.628 325.661C352.775 325.341 351.862 325.187 350.94 325.168Z" fill="#1F4068"/>
<path d="M367.905 342.393L369.966 345.803C370.652 346.939 371.355 348.063 372.026 349.207C372.706 350.346 373.39 351.487 374.169 352.562C374.556 353.1 374.959 353.631 375.336 354.182L375.618 354.596L375.885 355.02C376.069 355.299 376.23 355.592 376.4 355.88C377.061 357.045 377.591 358.285 378.001 359.563C378.206 360.202 378.378 360.851 378.527 361.506C378.664 362.163 378.781 362.824 378.859 363.49C379.02 364.822 379.062 366.164 379.031 367.497C379.015 368.163 378.977 368.828 378.945 369.492C378.91 370.156 378.867 370.817 378.884 371.48L378.839 371.484C378.749 370.822 378.738 370.153 378.724 369.488C378.716 368.823 378.707 368.16 378.687 367.498C378.652 366.174 378.566 364.856 378.391 363.55C378.211 362.246 377.955 360.954 377.583 359.691C377.206 358.431 376.722 357.203 376.139 356.018C375.843 355.429 375.531 354.845 375.177 354.286C375.009 354 374.819 353.729 374.632 353.456C374.448 353.181 374.249 352.913 374.058 352.641C373.291 351.554 372.492 350.489 371.739 349.389C370.98 348.294 370.304 347.145 369.654 345.983C369.008 344.819 368.4 343.634 367.864 342.414L367.905 342.393Z" fill="#1F4068"/>
<path d="M356.61 325.618C357.883 326.351 359.054 327.246 360.175 328.196C361.288 329.154 362.34 330.19 363.285 331.317C363.752 331.886 364.203 332.466 364.625 333.068C364.731 333.218 364.84 333.365 364.944 333.517L365.245 333.977C365.449 334.282 365.655 334.585 365.847 334.897L368.216 338.593C369.01 339.822 369.779 341.067 370.535 342.319L372.797 346.076L373.915 347.96L374.475 348.901L375.049 349.833C375.437 350.449 375.815 351.075 376.226 351.676C376.628 352.285 377.057 352.872 377.523 353.434L377.491 353.466C376.968 352.952 376.484 352.394 376.042 351.809C375.593 351.227 375.167 350.63 374.754 350.024C373.929 348.812 373.148 347.572 372.385 346.323C371.627 345.071 370.901 343.801 370.171 342.534C369.438 341.269 368.725 339.993 368.005 338.72C367.281 337.451 366.54 336.189 365.725 334.977C364.909 333.765 363.982 332.637 363.002 331.563C362.029 330.483 361.013 329.442 359.943 328.456C358.875 327.467 357.761 326.524 356.586 325.656L356.61 325.618Z" fill="#1F4068"/>
<path d="M369.012 380.086C369.626 379.448 370.049 378.686 370.393 377.896C370.731 377.1 370.993 376.273 371.208 375.432C371.427 374.591 371.6 373.737 371.758 372.878C371.911 372.018 372.049 371.153 372.18 370.279C372.236 371.162 372.195 372.047 372.105 372.927C372.016 373.808 371.859 374.682 371.642 375.544C371.525 375.973 371.398 376.4 371.247 376.82C371.089 377.237 370.918 377.65 370.709 378.046C370.296 378.833 369.75 379.589 369.012 380.086Z" fill="#1F4068"/>
<path d="M369.823 372.321C370.143 372.358 370.442 372.35 370.704 372.272C370.967 372.196 371.18 372.045 371.356 371.844C371.451 371.751 371.52 371.627 371.601 371.513C371.674 371.391 371.735 371.259 371.805 371.129C371.858 370.99 371.932 370.856 371.988 370.713C372.045 370.57 372.102 370.425 372.18 370.279C372.201 370.439 372.202 370.599 372.203 370.761C372.196 370.922 372.166 371.082 372.137 371.243C372.125 371.324 372.092 371.401 372.065 371.479C372.035 371.557 372.014 371.638 371.976 371.713C371.895 371.863 371.815 372.015 371.691 372.144C371.463 372.41 371.114 372.597 370.761 372.617C370.41 372.643 370.071 372.53 369.823 372.321Z" fill="#1F4068"/>
<path d="M363.88 345.867C364.685 346.758 365.408 347.719 366.084 348.71C366.759 349.702 367.39 350.727 367.943 351.792C368.491 352.861 368.965 353.964 369.435 355.066C369.902 356.169 370.352 357.279 370.754 358.411C371.164 359.54 371.482 360.706 371.692 361.895C371.81 362.487 371.872 363.089 371.94 363.69L371.992 364.597C372.005 364.899 371.992 365.203 371.99 365.506C371.94 366.716 371.777 367.929 371.413 369.088C371.044 370.242 370.517 371.341 369.842 372.333L369.804 372.31C370.349 371.244 370.784 370.138 371.072 368.993C371.357 367.847 371.483 366.67 371.51 365.494C371.545 364.316 371.453 363.134 371.275 361.964C371.095 360.795 370.844 359.632 370.519 358.485C370.195 357.34 369.798 356.211 369.301 355.125C368.803 354.04 368.213 353.001 367.614 351.972C366.435 349.904 365.189 347.875 363.845 345.896L363.88 345.867Z" fill="#1F4068"/>
<path d="M361.92 385.207C362.667 384.575 363.324 383.849 363.911 383.076C364.505 382.307 365.034 381.492 365.498 380.641C366.429 378.943 367.1 377.11 367.533 375.225C367.762 374.284 367.902 373.325 368.019 372.363C368.059 371.881 368.123 371.399 368.136 370.914L368.173 370.187L368.183 369.459C368.197 367.516 368.042 365.568 367.759 363.632C368.214 365.534 368.489 367.488 368.534 369.456L368.55 370.194L368.53 370.932C368.527 371.424 368.472 371.915 368.443 372.407C368.336 373.386 368.197 374.365 367.971 375.326C367.741 376.286 367.457 377.234 367.099 378.155C366.735 379.073 366.307 379.967 365.802 380.815C365.302 381.666 364.724 382.469 364.081 383.215C363.757 383.585 363.418 383.942 363.059 384.277C362.702 384.615 362.327 384.934 361.92 385.207Z" fill="#1F4068"/>
<path d="M311.567 354.41C311.484 353.5 311.458 352.589 311.454 351.679C311.448 350.768 311.477 349.858 311.525 348.949C311.581 348.04 311.652 347.131 311.775 346.226C311.896 345.323 312.046 344.419 312.301 343.54C312.231 344.451 312.179 345.354 312.124 346.259L311.973 348.974C311.863 350.784 311.767 352.595 311.567 354.41Z" fill="#1F4068"/>
<path d="M345.305 326.74C345.358 326.365 345.321 325.99 345.205 325.651C345.091 325.31 344.888 325.013 344.635 324.771C344.379 324.532 344.078 324.339 343.751 324.193L343.246 323.98C343.072 323.918 342.9 323.856 342.725 323.798C342.026 323.567 341.302 323.405 340.57 323.267C339.836 323.138 339.095 323.037 338.34 322.961C339.092 322.849 339.858 322.853 340.617 322.919C341.377 322.988 342.132 323.137 342.865 323.372C343.047 323.435 343.227 323.504 343.407 323.573C343.584 323.653 343.762 323.721 343.937 323.812C344.286 323.995 344.624 324.224 344.887 324.531C345.156 324.831 345.344 325.206 345.417 325.596C345.484 325.986 345.454 326.389 345.305 326.74Z" fill="#1F4068"/>
<path d="M349.272 324.881C349.122 324.422 348.993 324.03 348.805 323.658C348.712 323.472 348.615 323.289 348.496 323.111C348.385 322.925 348.248 322.756 348.119 322.544C348.594 322.654 348.993 323.016 349.209 323.46C349.319 323.682 349.383 323.924 349.398 324.168C349.41 324.411 349.383 324.659 349.272 324.881Z" fill="#1F4068"/>
<path d="M375.8 363.857C376.026 365.493 376.111 367.149 376.075 368.805C376.039 370.46 375.878 372.119 375.518 373.748C375.329 374.56 375.095 375.365 374.771 376.14C374.445 376.911 374.038 377.661 373.492 378.31C372.953 378.962 372.264 379.504 371.476 379.815C370.685 380.12 369.829 380.193 369.012 380.086C369.835 380.092 370.662 379.971 371.388 379.613C372.118 379.269 372.731 378.725 373.218 378.09C373.703 377.451 374.085 376.734 374.377 375.979C374.677 375.227 374.903 374.444 375.08 373.649C375.441 372.059 375.619 370.426 375.726 368.79C375.775 367.971 375.807 367.15 375.817 366.328C375.837 365.505 375.822 364.682 375.8 363.857Z" fill="#1F4068"/>
<path d="M319.351 386.853C319.564 387.318 319.654 387.84 319.654 388.359C319.65 388.488 319.65 388.62 319.636 388.749L319.585 389.138C319.558 389.266 319.523 389.393 319.492 389.521C319.46 389.648 319.408 389.77 319.367 389.894C319.169 390.379 318.904 390.845 318.539 391.219C318.375 391.421 318.162 391.576 317.967 391.742C317.761 391.895 317.534 392.021 317.312 392.143C317.475 391.941 317.659 391.773 317.816 391.581C317.968 391.384 318.136 391.206 318.266 390.999C318.332 390.896 318.407 390.801 318.47 390.699L318.648 390.385C318.714 390.284 318.755 390.17 318.809 390.063C318.861 389.955 318.913 389.847 318.948 389.733C319.131 389.29 319.24 388.818 319.305 388.337C319.368 387.854 319.383 387.361 319.351 386.853Z" fill="#1F4068"/>
<path d="M327.012 389.152C327.088 389.516 327.085 389.888 327.046 390.253C327.005 390.619 326.923 390.982 326.799 391.331C326.679 391.682 326.501 392.014 326.291 392.32C326.082 392.628 325.811 392.895 325.505 393.1C325.673 392.767 325.846 392.466 325.987 392.145C326.129 391.826 326.262 391.508 326.376 391.18C326.491 390.853 326.601 390.522 326.703 390.185L327.012 389.152Z" fill="#1F4068"/>
<path d="M362.434 369.048L361.405 369.226C359.371 369.578 357.437 368.215 357.084 366.181L355.946 359.607C355.594 357.573 356.957 355.639 358.991 355.287L360.02 355.109C362.054 354.757 363.988 356.12 364.341 358.154L365.479 364.727C365.831 366.761 364.468 368.695 362.434 369.048Z" fill="#FFC89F"/>
<path d="M361.055 364.092C360.803 364.173 360.516 364.157 360.254 364.061C359.994 363.959 359.759 363.771 359.61 363.523C359.534 363.4 359.472 363.265 359.443 363.121L359.361 362.733L359.218 361.961L359.093 361.185L359.039 360.792C359.019 360.647 359.031 360.499 359.061 360.358C359.118 360.073 359.277 359.817 359.487 359.634C359.702 359.455 359.966 359.344 360.232 359.336C359.721 359.489 359.376 359.938 359.325 360.402C359.314 360.518 359.314 360.636 359.336 360.75L359.412 361.13L359.555 361.902L359.68 362.677L359.736 363.061C359.754 363.176 359.792 363.287 359.842 363.393C360.047 363.813 360.524 364.12 361.055 364.092Z" fill="#FF9A6C"/>
<path d="M360.06 358.307C360.46 358.201 360.9 358.237 361.297 358.398C361.69 358.567 362.036 358.862 362.261 359.238C362.373 359.425 362.464 359.63 362.506 359.847C362.553 360.057 362.587 360.253 362.627 360.456L362.847 361.669L363.048 362.885C363.078 363.09 363.113 363.286 363.139 363.499C363.172 363.717 363.156 363.941 363.113 364.155C363.028 364.585 362.8 364.979 362.488 365.27C362.168 365.555 361.765 365.737 361.353 365.771C362.157 365.569 362.759 364.875 362.853 364.111C362.874 363.921 362.876 363.728 362.842 363.541C362.81 363.347 362.766 363.14 362.729 362.94L362.51 361.727L362.309 360.511C362.277 360.31 362.249 360.1 362.213 359.907C362.182 359.719 362.116 359.538 362.032 359.366C361.686 358.678 360.885 358.227 360.06 358.307Z" fill="#FF9A6C"/>
<path d="M358.931 369.549C359.101 370.533 360.037 371.192 361.021 371.022C362.005 370.851 362.665 369.915 362.494 368.931C362.324 367.947 361.388 367.288 360.404 367.458C359.42 367.629 358.76 368.565 358.931 369.549Z" fill="#00B3F0"/>
<path d="M387.954 444.758C387.954 444.758 380.934 480.168 360.587 497.807L387.954 444.758Z" fill="#B4C0CD"/>
<path d="M324.578 512.396L335.995 511.716C341.611 511.382 347.226 512.395 352.371 514.67L365.044 520.274L345.104 509.226L324.578 512.396Z" fill="#B4C0CD"/>
<g opacity="0.4">
<path d="M291.832 561.308C291.832 561.308 297.339 568.539 301.063 572.358L287.039 564.714C287.039 564.714 289.99 563.021 291.832 561.308Z" fill="#A65B3C"/>
</g>
<g opacity="0.4">
<path d="M227.976 520.008C227.976 520.008 233.611 528.088 237.99 545.016L232.983 521.982L227.976 520.008Z" fill="#A65B3C"/>
</g>
<path d="M313.396 425.895L311.517 433.604C310.844 432.69 310.258 431.712 309.74 430.741L313.396 425.895Z" fill="#B4C0CD"/>
<path d="M239.988 553.865C239.701 552.388 239.377 550.918 239.027 549.455C238.689 547.989 238.327 546.529 237.942 545.075C237.171 542.167 236.308 539.284 235.354 536.433C234.396 533.582 233.331 530.768 232.141 528.006C231.5 526.646 230.904 525.263 230.182 523.943C229.525 522.588 228.732 521.31 227.976 520.008C228.755 521.294 229.574 522.561 230.256 523.904C230.99 525.22 231.594 526.602 232.245 527.959C233.455 530.718 234.54 533.529 235.516 536.378C236.454 539.24 237.3 542.131 238.052 545.046C238.805 547.961 239.469 550.9 239.988 553.865Z" fill="#A65B3C"/>
<path d="M258.183 525.516C257.706 526.517 257.221 527.514 256.729 528.508L255.216 531.471C254.197 533.44 253.156 535.399 252.095 537.347C251.019 539.286 249.91 541.207 248.782 543.117C248.21 544.067 247.644 545.02 247.054 545.96C246.469 546.902 245.853 547.825 245.25 548.754C245.83 547.809 246.421 546.872 246.982 545.916C247.562 544.971 248.121 544.014 248.684 543.059C249.795 541.141 250.885 539.211 251.946 537.264C253.022 535.327 254.079 533.378 255.116 531.418L256.655 528.47C257.171 527.489 257.681 526.505 258.183 525.516Z" fill="#A65B3C"/>
<path d="M240.768 566.35C240.124 564.781 239.595 563.157 239.285 561.482C239.142 560.644 239.027 559.797 239.012 558.944C238.977 558.092 239.03 557.236 239.167 556.393C239.435 554.708 240.117 553.077 241.179 551.737C242.245 550.406 243.654 549.339 245.25 548.754C244.459 549.064 243.733 549.517 243.066 550.033C242.401 550.554 241.793 551.148 241.283 551.819C240.257 553.156 239.588 554.756 239.336 556.421C239.045 558.084 239.149 559.794 239.414 561.459C239.7 563.126 240.182 564.758 240.768 566.35Z" fill="#A65B3C"/>
<path d="M291.832 561.308C292.861 562.675 293.934 564.007 295.02 565.329C296.11 566.646 297.209 567.957 298.347 569.233C299.474 570.52 300.622 571.787 301.794 573.033C302.958 574.285 304.154 575.509 305.352 576.731C304.736 576.138 304.11 575.553 303.501 574.952C302.897 574.346 302.289 573.743 301.698 573.124C300.505 571.896 299.356 570.625 298.218 569.347C297.09 568.058 295.988 566.748 294.918 565.411C293.849 564.074 292.81 562.712 291.832 561.308Z" fill="#A65B3C"/>
<path d="M272.221 570.346C273.541 570.083 274.841 569.731 276.129 569.343C277.417 568.956 278.691 568.524 279.946 568.041C282.457 567.081 284.888 565.911 287.188 564.523C289.49 563.141 291.66 561.525 293.559 559.623C295.457 557.722 297.067 555.532 298.274 553.123C297.684 554.333 297.025 555.512 296.245 556.613C295.45 557.701 294.595 558.75 293.64 559.703C291.747 561.626 289.579 563.266 287.277 564.669C284.957 566.047 282.51 567.203 279.987 568.148C277.465 569.096 274.871 569.864 272.221 570.346Z" fill="#A65B3C"/>
<path d="M324.578 512.396L331.445 511.946L334.88 511.733C336.024 511.658 337.172 511.595 338.321 511.6C342.915 511.624 347.509 512.539 351.753 514.315L364.335 519.898L370.623 522.695L376.9 525.516L370.589 522.771L364.289 520.002L351.687 514.472C347.472 512.687 342.9 511.756 338.32 511.714C337.175 511.703 336.031 511.762 334.886 511.832L331.45 512.028L324.578 512.396Z" fill="#B4C0CD"/>
<path d="M355.294 441.283C355.54 439.79 355.794 438.298 356.059 436.809L356.869 432.342L357.718 427.883C358.006 426.398 358.305 424.914 358.612 423.433C358.367 424.926 358.113 426.418 357.848 427.908L357.038 432.374L356.188 436.833C355.901 438.318 355.602 439.802 355.294 441.283Z" fill="#B4C0CD"/>
<path d="M311.514 433.602C311.712 432.661 311.917 431.722 312.134 430.785L312.799 427.98L313.502 425.183C313.741 424.252 313.991 423.324 314.25 422.398C314.053 423.339 313.847 424.278 313.63 425.215L312.965 428.02L312.262 430.816C312.023 431.747 311.773 432.676 311.514 433.602Z" fill="#B4C0CD"/>
<path d="M165.861 440.431L188.374 502.801C188.729 503.785 189.488 504.571 190.459 504.96L242.876 525.985L260.74 522.177L259.16 499.903H232.144L215.265 449.451C214.861 448.242 213.859 447.33 212.617 447.041L169.004 436.894C166.925 436.41 165.136 438.422 165.861 440.431Z" fill="#1F4168"/>
<path d="M232.145 499.903L240.56 525.056L242.876 525.985L260.74 522.177L259.16 499.903H232.145Z" fill="#112E4C"/>
<path d="M258.184 525.516C258.184 525.516 265.535 514.136 277.432 510.339C289.328 506.543 308.944 513.883 308.944 513.883C308.944 513.883 332.043 512.334 348.497 508.48C351.721 507.725 354.586 505.884 356.596 503.254C363.65 494.024 380.949 469.145 390.99 435.408C390.99 435.408 372.22 430.728 355.294 441.283C355.294 441.283 347.075 470.376 339.991 486.487L314.2 492.95C314.2 492.95 311.591 483.477 310.355 476.199C310.355 476.199 296.152 488.434 278.158 492.286C278.158 492.286 275.493 491.312 271.747 491.177C269.136 491.083 266.572 491.906 264.486 493.478L258.184 498.227L248.827 499.902L245.136 499.164C243.669 498.87 242.466 500.393 243.143 501.728C243.656 502.74 245.002 503.896 246.834 504.419L236.776 510.577C235.901 511.147 235.649 512.315 236.21 513.195C236.698 513.962 237.66 514.276 238.507 513.946L250.572 509.243L234.968 520.081C234.002 520.752 233.788 522.092 234.497 523.031C235.11 523.841 236.22 524.088 237.118 523.612L258.969 512.042L239.011 525.809C238.187 526.378 237.974 527.504 238.534 528.334C239.039 529.082 240.016 529.348 240.831 528.96L249.045 525.054C249.045 525.054 247.125 525.769 246.042 527.103C245.277 528.045 246.183 529.413 247.349 529.078L249.082 528.58H251.951C252.477 528.58 252.993 528.445 253.451 528.186L258.184 525.516Z" fill="#FFC89F"/>
<path d="M249.046 525.056C250.346 524.473 251.65 523.898 252.958 523.333L253.937 522.909C254.257 522.765 254.561 522.587 254.845 522.379L256.581 521.133L260.074 518.669C261.241 517.852 262.415 517.043 263.594 516.243C262.452 517.095 261.305 517.94 260.151 518.777L256.681 521.273L254.936 522.506C254.643 522.717 254.328 522.899 253.998 523.045L253.009 523.455C251.692 523.998 250.37 524.531 249.046 525.056Z" fill="#FF9A6C"/>
<path d="M250.572 509.244C251.472 508.658 252.404 508.128 253.333 507.595C254.272 507.079 255.208 506.558 256.177 506.095C255.278 506.682 254.346 507.211 253.416 507.744C252.478 508.26 251.541 508.781 250.572 509.244Z" fill="#FF9A6C"/>
<path d="M278.52 498.356L282.974 497.639L287.431 496.948L296.347 495.568L305.271 494.245L309.733 493.585L314.2 492.95L309.746 493.668L305.288 494.358L296.373 495.738L287.449 497.06L282.986 497.721L278.52 498.356Z" fill="#FF9A6C"/>
<path d="M246.834 504.42L250.498 502.389L254.174 500.38L257.851 498.373C259.077 497.69 260.429 497.223 261.821 497.022C262.518 496.921 263.223 496.889 263.925 496.92C264.629 496.955 265.319 497.043 266.015 497.105L270.185 497.513L274.354 497.921L278.52 498.355L274.346 498.004L270.174 497.626L266.002 497.248C265.307 497.19 264.61 497.107 263.919 497.077C263.226 497.051 262.531 497.088 261.846 497.191C260.472 497.38 259.137 497.83 257.919 498.498L254.229 500.48L250.538 502.462L246.834 504.42Z" fill="#FF9A6C"/>
<path d="M199.428 480.615L197.238 480.09C196.927 480.016 196.676 479.786 196.574 479.483L195.708 476.904C195.475 476.213 196.095 475.535 196.804 475.705L198.994 476.23C199.305 476.305 199.556 476.534 199.658 476.838L200.524 479.417C200.757 480.108 200.138 480.785 199.428 480.615Z" fill="white"/>
<path d="M179.683 561.862C179.683 565.493 181.866 568.863 185.348 570.28L187.708 571.24C184.472 569.438 182.492 566.02 182.492 562.37C182.492 561.629 182.573 560.879 182.742 560.132C183.54 556.596 186.136 553.827 189.452 552.732L188.394 552.776C184.29 552.945 180.808 555.849 179.906 559.855C179.754 560.527 179.683 561.2 179.683 561.862Z" fill="#F0F2F5"/>
</g>
<defs>
<clipPath id="clip0_13_18010">
<rect width="720" height="720" fill="white"/>
</clipPath>
</defs>
</svg>
