<svg width="30" height="30" viewBox="0 0 30 30" fill="none" xmlns="http://www.w3.org/2000/svg">
<circle cx="15" cy="15" r="14.5" stroke="#C9C9C9" stroke-dasharray="4 4"/>
<path d="M19.6666 15.6666C19.4898 15.6666 19.3202 15.7368 19.1952 15.8619C19.0702 15.9869 18.9999 16.1565 18.9999 16.3333V16.5866L18.0133 15.5999C17.6649 15.2543 17.194 15.0603 16.7033 15.0603C16.2125 15.0603 15.7416 15.2543 15.3933 15.5999L14.9266 16.0666L13.2733 14.4133C12.92 14.077 12.451 13.8895 11.9633 13.8895C11.4755 13.8895 11.0065 14.077 10.6533 14.4133L9.66659 15.3999V11.6666C9.66659 11.4898 9.73682 11.3202 9.86185 11.1952C9.98687 11.0702 10.1564 10.9999 10.3333 10.9999H14.9999C15.1767 10.9999 15.3463 10.9297 15.4713 10.8047C15.5963 10.6796 15.6666 10.5101 15.6666 10.3333C15.6666 10.1565 15.5963 9.98688 15.4713 9.86186C15.3463 9.73684 15.1767 9.6666 14.9999 9.6666H10.3333C9.80282 9.6666 9.29411 9.87731 8.91904 10.2524C8.54397 10.6275 8.33325 11.1362 8.33325 11.6666V19.6666C8.33325 20.197 8.54397 20.7057 8.91904 21.0808C9.29411 21.4559 9.80282 21.6666 10.3333 21.6666H18.3333C18.8637 21.6666 19.3724 21.4559 19.7475 21.0808C20.1225 20.7057 20.3333 20.197 20.3333 19.6666V16.3333C20.3333 16.1565 20.263 15.9869 20.138 15.8619C20.013 15.7368 19.8434 15.6666 19.6666 15.6666ZM10.3333 20.3333C10.1564 20.3333 9.98687 20.263 9.86185 20.138C9.73682 20.013 9.66659 19.8434 9.66659 19.6666V17.2866L11.5999 15.3533C11.6979 15.2599 11.828 15.2079 11.9633 15.2079C12.0985 15.2079 12.2286 15.2599 12.3266 15.3533L14.4399 17.4666L17.3066 20.3333H10.3333ZM18.9999 19.6666C18.999 19.7942 18.9569 19.9181 18.8799 20.0199L15.8733 16.9999L16.3399 16.5333C16.3877 16.4845 16.4448 16.4457 16.5077 16.4193C16.5707 16.3928 16.6383 16.3792 16.7066 16.3792C16.7749 16.3792 16.8425 16.3928 16.9054 16.4193C16.9684 16.4457 17.0255 16.4845 17.0733 16.5333L18.9999 18.4733V19.6666ZM22.1399 9.85993L20.1399 7.85993C20.0765 7.79924 20.0018 7.75166 19.9199 7.71993C19.7576 7.65325 19.5756 7.65325 19.4133 7.71993C19.3314 7.75166 19.2567 7.79924 19.1933 7.85993L17.1933 9.85993C17.1311 9.92209 17.0818 9.99588 17.0481 10.0771C17.0145 10.1583 16.9972 10.2454 16.9972 10.3333C16.9972 10.5108 17.0677 10.6811 17.1933 10.8066C17.3188 10.9321 17.4891 11.0027 17.6666 11.0027C17.8441 11.0027 18.0144 10.9321 18.1399 10.8066L18.9999 9.93993V13.6666C18.9999 13.8434 19.0702 14.013 19.1952 14.138C19.3202 14.263 19.4898 14.3333 19.6666 14.3333C19.8434 14.3333 20.013 14.263 20.138 14.138C20.263 14.013 20.3333 13.8434 20.3333 13.6666V9.93993L21.1933 10.8066C21.2552 10.8691 21.329 10.9187 21.4102 10.9525C21.4914 10.9864 21.5786 11.0038 21.6666 11.0038C21.7546 11.0038 21.8417 10.9864 21.923 10.9525C22.0042 10.9187 22.0779 10.8691 22.1399 10.8066C22.2024 10.7446 22.252 10.6709 22.2858 10.5896C22.3197 10.5084 22.3371 10.4213 22.3371 10.3333C22.3371 10.2453 22.3197 10.1581 22.2858 10.0769C22.252 9.99564 22.2024 9.92191 22.1399 9.85993Z" fill="#505050"/>
</svg>
